<svg width="90" height="90" viewBox="0 0 90 90" fill="none" xmlns="http://www.w3.org/2000/svg">
<circle cx="45" cy="45" r="45" fill="white"/>
<path d="M30.4168 65.8327C31.5219 65.8327 32.5817 65.3937 33.3631 64.6123C34.1445 63.8309 34.5835 62.7711 34.5835 61.666V49.166C34.5835 48.0609 34.1445 47.0011 33.3631 46.2197C32.5817 45.4383 31.5219 44.9994 30.4168 44.9994V42.916C30.4168 39.0483 31.9532 35.3389 34.6881 32.604C37.4231 29.8691 41.1324 28.3327 45.0001 28.3327C48.8679 28.3327 52.5772 29.8691 55.3121 32.604C58.047 35.3389 59.5835 39.0483 59.5835 42.916V44.9994C58.4784 44.9994 57.4186 45.4383 56.6372 46.2197C55.8558 47.0011 55.4168 48.0609 55.4168 49.166V61.666H49.1668C48.6143 61.666 48.0844 61.8855 47.6937 62.2762C47.3029 62.6669 47.0835 63.1968 47.0835 63.7494C47.0835 64.3019 47.3029 64.8318 47.6937 65.2225C48.0844 65.6132 48.6143 65.8327 49.1668 65.8327H59.5835C61.971 65.8255 64.2836 64.9985 66.1341 63.4899C67.9847 61.9813 69.2608 59.8828 69.749 57.5457C70.2371 55.2086 69.9075 52.7747 68.8155 50.6516C67.7235 48.5284 65.9352 46.8448 63.7501 45.8827V42.916C63.7501 37.9432 61.7747 33.1741 58.2584 29.6578C54.7421 26.1415 49.9729 24.166 45.0001 24.166C40.0273 24.166 35.2582 26.1415 31.7419 29.6578C28.2256 33.1741 26.2501 37.9432 26.2501 42.916V45.8827C24.065 46.8448 22.2768 48.5284 21.1847 50.6516C20.0927 52.7747 19.7632 55.2086 20.2513 57.5457C20.7394 59.8828 22.0156 61.9813 23.8661 63.4899C25.7166 64.9985 28.0293 65.8255 30.4168 65.8327Z" fill="#112267"/>
</svg>
