<svg width="90" height="90" viewBox="0 0 90 90" fill="none" xmlns="http://www.w3.org/2000/svg">
<circle cx="45" cy="45" r="45" fill="white"/>
<path fill-rule="evenodd" clip-rule="evenodd" d="M34.0354 21.2117C33.4497 21.3706 32.9282 21.7856 32.5498 22.394L32.2568 22.8651L32.2301 30.6609L32.2035 38.4567L36.1852 38.4595C40.1433 38.4622 40.1696 38.4636 40.6064 38.6865C41.4135 39.0985 41.8743 39.9281 41.8754 40.9714L41.8759 41.4841H49.8349H57.7939L57.7929 32.28L57.792 23.0759L57.5643 22.5869C57.3156 22.0527 56.7843 21.5297 56.2385 21.2814C55.9241 21.1385 54.8329 21.1209 45.1962 21.1039C36.6881 21.0889 34.4074 21.1108 34.0354 21.2117ZM45.8971 23.641C45.8398 23.71 45.5689 24.6 45.2952 25.6185C45.0214 26.6371 44.7725 27.5363 44.742 27.6169C44.7075 27.7078 44.6204 27.5738 44.5122 27.2636C44.1592 26.251 44.4863 26.3473 41.4038 26.3473C39.4251 26.3473 38.6607 26.379 38.5752 26.4645C38.4129 26.6267 38.4287 26.89 38.6114 27.0728C38.7425 27.2039 39.111 27.2263 41.14 27.2263C42.9504 27.2263 43.5262 27.2553 43.5615 27.3483C43.587 27.4155 43.7726 27.9318 43.974 28.4958C44.1753 29.0597 44.3843 29.5762 44.4383 29.6432C44.5679 29.8043 44.9489 29.7993 45.0854 29.6348C45.145 29.5629 45.4236 28.6408 45.7045 27.5857C45.9855 26.5306 46.2446 25.6994 46.2802 25.7388C46.3159 25.7781 46.4816 26.2549 46.6484 26.7983C46.9753 27.8634 47.1156 28.0617 47.4776 27.9708C47.6561 27.926 47.7982 27.7179 48.085 27.081L48.4594 26.2497H49.9061H51.3528L51.4674 25.9979C51.5491 25.8189 51.5524 25.6991 51.4792 25.5829C51.3891 25.4402 51.1559 25.4196 49.6292 25.4196H47.8822L47.6867 25.7855C47.5792 25.9868 47.4679 26.1516 47.4395 26.1517C47.4111 26.1519 47.2006 25.5847 46.9718 24.8915C46.725 24.1433 46.4946 23.6074 46.4051 23.5731C46.1702 23.483 46.0106 23.5043 45.8971 23.641ZM38.549 31.7307C38.4683 31.8815 38.4669 32.002 38.5435 32.1702L38.6491 32.402H44.9954H51.3418L51.4529 32.1944C51.5336 32.0436 51.535 31.9231 51.4584 31.755L51.3528 31.5231H45.0065H38.6601L38.549 31.7307ZM38.5752 35.2536C38.4129 35.4158 38.4287 35.6791 38.6114 35.8619C38.7477 35.9981 39.462 36.0153 45.0009 36.0153C50.5399 36.0153 51.2542 35.9981 51.3905 35.8619C51.5732 35.6791 51.5889 35.4158 51.4267 35.2536C51.2573 35.0842 38.7446 35.0842 38.5752 35.2536ZM30.0586 39.5554C29.4647 39.9596 29.3545 40.2034 29.3006 41.2311C29.2738 41.7452 29.2028 42.2062 29.1429 42.2556C29.0831 42.3051 28.5141 42.3604 27.8785 42.3786L26.7227 42.4118L26.438 42.7307L26.1533 43.0497V55.624C26.1533 69.5865 26.1 68.4978 26.7977 68.7893C27.2854 68.9931 62.7165 68.9931 63.2042 68.7893C63.9019 68.4978 63.8486 69.5865 63.8486 55.624V43.0497L63.5636 42.7307L63.2787 42.4118L52.2684 42.3861C45.1321 42.3695 41.2169 42.3263 41.1409 42.2631C41.0716 42.2057 41.0035 41.7822 40.9747 41.2311C40.9209 40.2034 40.8106 39.9596 40.2168 39.5554L39.8939 39.3356H35.1377H30.3814L30.0586 39.5554ZM43.9687 47.6409C40.6438 48.0753 37.8974 50.5838 37.1503 53.8689C36.9243 54.8626 36.9416 56.5799 37.1875 57.5573C37.8716 60.2768 39.8197 62.3492 42.6084 63.3242C43.3362 63.5787 43.4965 63.5976 44.9521 63.6003C46.3224 63.6028 46.6046 63.5751 47.247 63.3744C49.4466 62.6872 51.1965 61.2114 52.1865 59.2087C52.8546 57.8568 53.039 56.972 52.9881 55.3609C52.9511 54.1872 52.91 53.9269 52.6345 53.1206C52.2893 52.1101 52.0023 51.566 51.387 50.7552C50.0888 49.0448 48.1103 47.9055 45.98 47.6413C45.0646 47.5278 44.8349 47.5278 43.9687 47.6409ZM44.2197 53.2004V54.7604L42.6328 54.7873L41.0459 54.8141L41.0175 55.6174L40.9892 56.4206L42.58 56.4474L44.1709 56.4743L44.1977 58.0651L44.2246 59.6559L45.0278 59.6276L45.831 59.5993L45.857 58.1345C45.879 56.8978 45.9085 56.6506 46.0465 56.5475C46.1596 56.4632 46.642 56.4255 47.6075 56.4255H49.0048V55.5954V54.7653H47.4946C46.1014 54.7653 45.9765 54.7507 45.8833 54.5765C45.8273 54.4719 45.7822 53.774 45.7822 53.014V51.6403H45.0009H44.2197V53.2004Z" fill="#112267"/>
</svg>
