<svg width="90" height="90" viewBox="0 0 90 90" fill="none" xmlns="http://www.w3.org/2000/svg">
<circle cx="45" cy="45" r="45" fill="white"/>
<g clip-path="url(#clip0_91_584)">
<path fill-rule="evenodd" clip-rule="evenodd" d="M32.577 20.2015C32.3766 20.3072 32.1389 20.5361 32.0488 20.7099C31.7811 21.2267 29.8652 27.0536 29.8652 27.3512C29.8652 27.8113 30.2196 28.3764 30.6439 28.5929C31.021 28.7853 31.204 28.7895 39.1426 28.7895C47.0812 28.7895 47.2642 28.7853 47.6412 28.5929C48.0655 28.3764 48.4199 27.8113 48.4199 27.3512C48.4199 27.0534 46.504 21.2266 46.2361 20.7094C46.1439 20.5316 45.9035 20.307 45.6874 20.1967C45.3138 20.0061 45.1245 20.0005 39.1221 20.0047C33.1652 20.0089 32.9282 20.016 32.577 20.2015ZM23.5455 23.0718C22.5511 23.3825 21.8288 24.0175 21.379 24.9764L21.125 25.518V46.4673V67.4166L21.4465 68.0696C21.8133 68.8149 22.3304 69.315 23.127 69.6952L23.6641 69.9516H39.1446H54.6252L55.2718 69.6332C56.0244 69.2628 56.5408 68.7333 56.9028 67.9613L57.1602 67.4125V46.4632V25.5139L56.8418 24.8673C56.4714 24.1147 55.9419 23.5983 55.1699 23.2362C54.6352 22.9856 54.5641 22.9781 52.3994 22.9479C51.1775 22.9309 50.1777 22.9543 50.1777 23C50.1777 23.0458 50.4219 23.8069 50.7203 24.6912C51.4978 26.9953 51.5286 27.8802 50.8804 29.2778C50.5747 29.9366 49.618 30.9155 48.9809 31.2213C47.9318 31.7247 48.088 31.7168 39.1426 31.7168C30.1908 31.7168 30.3515 31.725 29.3121 31.2179C28.6537 30.8966 27.7102 29.9343 27.3929 29.2604C26.7559 27.9075 26.7905 26.9861 27.5648 24.6912C27.8633 23.8069 28.1074 23.0487 28.1074 23.0067C28.1074 22.8707 24.0013 22.9293 23.5455 23.0718ZM64.5611 28.1441C63.5519 28.4738 62.8428 29.099 62.3946 30.0545C62.1584 30.5582 62.1384 30.7105 62.108 32.2319L62.0753 33.8676H65.5098H68.9442L68.9115 32.2319C68.8811 30.7047 68.8618 30.5597 68.6216 30.0473C68.0546 28.8382 66.9767 28.1042 65.6777 28.0429C65.2528 28.0228 64.8092 28.063 64.5611 28.1441ZM36.0766 34.4542C35.4176 34.6585 34.9499 35.451 35.0798 36.1432C35.3277 37.4651 37.1923 37.7112 37.7996 36.5024C38.3616 35.3838 37.2687 34.0847 36.0766 34.4542ZM41.3515 34.4538C40.5034 34.717 40.0854 35.7059 40.4855 36.5024C41.0117 37.5497 42.4975 37.5509 43.0692 36.5043C43.6556 35.4312 42.5305 34.0881 41.3515 34.4538ZM30.9829 36.305C30.8726 36.3497 30.6419 36.5462 30.4702 36.7416C30.2045 37.0444 30.1583 37.1725 30.1586 37.6064C30.1591 38.2847 30.4199 38.7044 31.0009 38.9613C32.0233 39.4137 32.9902 38.7476 32.9902 37.5908C32.9902 37.0516 32.7148 36.6195 32.2022 36.3543C31.9024 36.1993 31.3037 36.1751 30.9829 36.305ZM46.0187 36.3903C45.5034 36.7144 45.2949 37.0618 45.2949 37.5966C45.2949 38.7476 46.2642 39.4126 47.2843 38.9613C47.9146 38.6825 48.1482 38.2788 48.1014 37.5491C48.0694 37.052 48.0219 36.9396 47.7123 36.63C47.4131 36.3308 47.281 36.2716 46.84 36.239C46.4457 36.2098 46.2476 36.2462 46.0187 36.3903ZM62.0918 48.0278V59.2582H65.5098H68.9277V48.0278V36.7973H65.5098H62.0918V48.0278ZM37.4662 38.7015C33.3023 39.4916 30.1603 43.0417 29.8964 47.2542C29.7978 48.8281 30.1802 49.9211 31.1766 50.9129C31.8138 51.5472 32.52 51.9361 33.3612 52.1162C34.0718 52.2683 44.2021 52.2699 44.9239 52.1181C45.7678 51.9406 46.4702 51.554 47.1086 50.9156C48.1028 49.9214 48.501 48.7543 48.3877 47.1661C48.1078 43.2403 45.2697 39.8411 41.4375 38.8416C40.406 38.5726 38.5001 38.5053 37.4662 38.7015ZM37.7754 41.6366C36.0224 42.0131 34.2899 43.3736 33.4917 45.0004C33.0613 45.8775 32.7994 46.8843 32.7966 47.6727C32.7944 48.2803 33.0896 48.8167 33.5766 49.0904C33.9386 49.2939 34.0292 49.2973 39.1354 49.2973C44.0393 49.2973 44.3462 49.287 44.6893 49.112C45.4369 48.7306 45.6395 47.9269 45.3438 46.5141C44.9686 44.7207 43.623 42.9903 41.9746 42.1816C40.6164 41.5151 39.1982 41.3311 37.7754 41.6366ZM27.6935 55.358C27.2812 55.5757 26.9355 56.1519 26.9355 56.6215C26.9355 57.1061 27.281 57.6687 27.7143 57.8898C28.0937 58.0833 28.2678 58.0863 39.1426 58.0863C50.0174 58.0863 50.1914 58.0833 50.5709 57.8898C51.0042 57.6687 51.3496 57.1061 51.3496 56.6215C51.3496 56.1369 51.0042 55.5743 50.5709 55.3532C50.1912 55.1596 50.0218 55.1568 39.1221 55.161C28.2999 55.1652 28.0506 55.1695 27.6935 55.358ZM27.6935 61.2174C27.2812 61.4351 26.9355 62.0112 26.9355 62.4809C26.9355 62.9654 27.281 63.528 27.7143 63.7491C28.0937 63.9427 28.2678 63.9457 39.1426 63.9457C50.0174 63.9457 50.1914 63.9427 50.5709 63.7491C51.0042 63.528 51.3496 62.9654 51.3496 62.4809C51.3496 61.9963 51.0042 61.4337 50.5709 61.2126C50.1912 61.019 50.0218 61.0161 39.1221 61.0203C28.2999 61.0245 28.0506 61.0288 27.6935 61.2174ZM63.2588 65.5815C63.7267 67.448 64.1837 69.1174 64.2745 69.2914C64.4639 69.6544 65.0667 70.0004 65.5098 70.0004C65.9528 70.0004 66.5557 69.6544 66.745 69.2914C66.8358 69.1174 67.2929 67.448 67.7607 65.5815L68.6114 62.1879H65.5098H62.4081L63.2588 65.5815Z" fill="#112267"/>
</g>
<defs>
<clipPath id="clip0_91_584">
<rect width="50" height="50" fill="white" transform="translate(20 20)"/>
</clipPath>
</defs>
</svg>
