<svg width="90" height="90" viewBox="0 0 90 90" fill="none" xmlns="http://www.w3.org/2000/svg">
<circle cx="45" cy="45" r="45" fill="white"/>
<path fill-rule="evenodd" clip-rule="evenodd" d="M44.1153 20.3264C43.8231 20.5059 43.1665 20.9171 42.6562 21.2403C37.6988 24.3806 31.5614 26.4686 25.6152 27.0381C24.1146 27.1817 23.7072 27.3431 23.4192 27.9076C23.2282 28.2821 23.2227 28.4716 23.2227 34.625C23.2227 38.1227 23.2684 41.545 23.3246 42.2705C24.1221 52.5383 29.8191 61.8039 38.6035 67.1193C40.5969 68.3256 44.3124 70 44.9955 70C45.4326 70 47.6754 69.096 49.3457 68.2466C54.4857 65.6326 58.8211 61.6717 61.9097 56.7676C62.7789 55.3874 64.2006 52.5095 64.7587 51.0001C65.8111 48.1542 66.4274 45.3347 66.6765 42.2271C66.7319 41.5344 66.7773 38.1159 66.7773 34.6304C66.7773 28.4716 66.7718 28.2821 66.5808 27.9076C66.2936 27.3446 65.8805 27.1777 64.4336 27.0403C58.4728 26.4741 52.4182 24.4165 47.3438 21.2322C45.475 20.0596 45.3616 20 45 20C44.7705 20 44.4604 20.1144 44.1153 20.3264ZM43.9746 30.3915C42.4918 30.7589 41.23 31.971 40.6886 33.5482C40.3667 34.4858 40.3667 35.9829 40.6886 36.9205C41.6079 39.5984 44.3757 40.9074 46.7767 39.7999C47.9497 39.2588 48.866 38.2179 49.3114 36.9205C49.6333 35.9829 49.6333 34.4858 49.3114 33.5482C48.5008 31.1868 46.2168 29.8359 43.9746 30.3915ZM44.361 33.3655C43.2453 34.0459 42.9904 35.6814 43.8479 36.658C44.5846 37.4971 45.4154 37.4971 46.1521 36.658C46.8287 35.8873 46.8287 34.5814 46.1521 33.8107C45.5947 33.176 44.9392 33.013 44.361 33.3655ZM32.6953 35.4648C30.3797 36.0952 29.0173 38.4833 29.6209 40.8535C30.3303 43.6391 33.1578 45.4325 35.7681 44.7526C36.589 44.5389 37.2073 44.1715 37.81 43.5397C38.4276 42.8921 38.6976 42.4001 38.8954 41.5606C39.5077 38.9638 37.8588 36.2956 35.1434 35.4895C34.5226 35.3052 33.3261 35.2932 32.6953 35.4648ZM54.8742 35.4864C51.8758 36.2928 50.1476 39.7115 51.3788 42.4011C51.6867 43.0734 52.5454 43.9979 53.1861 44.3466C55.9449 45.848 59.5534 44.0957 60.3791 40.8535C60.9924 38.4454 59.5417 35.9764 57.1958 35.4355C56.5904 35.296 55.4929 35.32 54.8742 35.4864ZM33.1156 38.4527C32.1676 39.0309 32.1679 40.2668 33.1163 41.2391C33.7978 41.9376 34.5385 42.1437 35.2699 41.838C36.1811 41.4573 36.3724 40.2656 35.6831 39.2653C35.0791 38.3889 33.8556 38.0016 33.1156 38.4527ZM55.1834 38.5106C53.511 39.3439 53.4656 41.7192 55.1178 41.9408C55.7846 42.0303 56.321 41.8173 56.8837 41.2397C58.4579 39.6238 57.1529 37.5292 55.1834 38.5106ZM43.6205 42.9089C40.6344 43.5507 37.7097 46.2678 36.3767 49.6387C35.3113 52.3324 35.589 55.0473 37.0294 56.0229C38.1757 56.7991 39.2297 56.7598 41.9941 55.8373C42.9459 55.5196 44.0116 55.2069 44.3623 55.1423C45.2067 54.9867 45.8657 55.1101 47.8809 55.8006C48.7402 56.095 49.8275 56.4024 50.2972 56.4836C52.7783 56.9126 54.2773 55.5323 54.2773 52.8185C54.2773 50.404 52.9845 47.6049 50.9124 45.533C48.725 43.346 46.056 42.3854 43.6205 42.9089ZM43.923 45.8669C43.6261 45.9619 43.0987 46.1896 42.7512 46.3729C41.9056 46.8187 40.4027 48.3119 39.7781 49.3268C38.9777 50.6271 38.5093 52.3608 38.6932 53.3415C38.7588 53.6912 38.7674 53.6971 39.1213 53.6357C39.3199 53.6014 40.2813 53.3125 41.2578 52.9938C44.7773 51.8454 45.2227 51.8454 48.7422 52.9938C49.7187 53.3125 50.6801 53.6014 50.8787 53.6357C51.2326 53.6971 51.2412 53.6912 51.3068 53.3415C51.4907 52.3608 51.0223 50.6271 50.2219 49.3268C49.5706 48.2686 48.0927 46.814 47.1973 46.3497C45.8924 45.6733 44.9582 45.5355 43.923 45.8669Z" fill="#112267"/>
</svg>
