<svg width="24" height="24" viewBox="0 0 24 24" fill="none" xmlns="http://www.w3.org/2000/svg">
<path d="M11.29 13.4001C11.383 13.4939 11.4936 13.5683 11.6154 13.619C11.7373 13.6698 11.868 13.6959 12 13.6959C12.132 13.6959 12.2627 13.6698 12.3846 13.619C12.5064 13.5683 12.617 13.4939 12.71 13.4001L17.29 8.81014C17.383 8.71641 17.4936 8.64202 17.6154 8.59125C17.7373 8.54048 17.868 8.51434 18 8.51434C18.132 8.51434 18.2627 8.54048 18.3846 8.59125C18.5064 8.64202 18.617 8.71641 18.71 8.81014C18.8962 8.9975 19.0008 9.25095 19.0008 9.51514C19.0008 9.77933 18.8962 10.0328 18.71 10.2201L14.12 14.8101C13.5575 15.3719 12.795 15.6875 12 15.6875C11.205 15.6875 10.4425 15.3719 9.87999 14.8101L5.28999 10.2201C5.10525 10.0339 5.0011 9.78248 4.99999 9.52014C4.99923 9.38853 5.02446 9.25807 5.07422 9.13623C5.12398 9.0144 5.19731 8.90358 5.28999 8.81014C5.38296 8.71641 5.49356 8.64202 5.61541 8.59125C5.73727 8.54048 5.86798 8.51434 5.99999 8.51434C6.132 8.51434 6.26271 8.54048 6.38457 8.59125C6.50643 8.64202 6.61703 8.71641 6.70999 8.81014L11.29 13.4001Z" fill="#112267"/>
</svg>
