<svg width="101" height="70" viewBox="0 0 101 70" fill="none" xmlns="http://www.w3.org/2000/svg">
<path fill-rule="evenodd" clip-rule="evenodd" d="M71.5195 0.712037C65.9503 2.2376 60.9855 5.54137 59.4669 8.73198C58.8585 10.0105 58.7338 10.107 57.2699 10.4313C51.536 11.7008 47.3263 16.1821 45.5647 22.8921C45.0405 24.8887 44.6341 33.3673 44.9753 35.1908L45.1671 36.2164L45.8861 34.8592C47.6412 31.5455 50.8949 28.1733 54.0374 26.4112C56.1272 25.2393 59.2979 24.1489 61.446 23.8631C62.8628 23.6747 62.8715 23.6673 63.5883 22.0099C63.9841 21.0946 64.3874 20.3457 64.4844 20.3457C64.5812 20.3457 65.4421 21.0267 66.397 21.8591C67.3521 22.6915 68.5779 23.5219 69.121 23.7047C71.844 24.6199 74.9774 27.8589 76.8124 31.6553C77.6135 33.3124 77.9128 33.6466 79.2204 34.3437C81.5915 35.6078 81.7453 36.4809 80.1973 39.8871C79.4013 41.6388 79.2811 41.7568 76.9966 43.0322C74.3143 44.5298 70.498 47.5028 68.9895 49.2703C67.9125 50.5316 67.1458 52.619 67.1458 54.2892C67.1458 57.765 70.4235 64.501 74.1704 68.7268L75.2994 70L74.9704 68.8683C74.7895 68.2458 74.6405 65.9541 74.6397 63.7755C74.6383 60.5156 74.7497 59.4226 75.2703 57.6011C76.7266 52.5042 79.2283 49.3769 82.4239 48.6594C83.0997 48.5078 85.0495 48.2486 86.7566 48.0834C90.5447 47.7172 92.6367 47.1907 95.2225 45.9526C98.7355 44.2709 100.987 41.443 101 38.6969C101.009 36.8408 100.452 36.3004 97.8529 35.6412C90.3156 33.7297 82.383 27.95 82.383 24.3695C82.383 23.1162 81.1852 20.6125 79.8988 19.1775C79.1699 18.3643 77.4309 16.7582 76.0342 15.6083C74.5547 14.3903 73.2297 13.0342 72.8598 12.3603C71.6837 10.2165 72.1524 6.71469 74.2049 2.3089C75.4893 -0.448545 75.5731 -0.398748 71.5195 0.712037ZM11.3673 28.2955C6.75409 29.0679 1.68238 32.3926 0.391461 35.4904C-0.422032 37.4426 0.0853089 40.7198 1.42364 42.1563C2.43211 43.2387 3.10367 42.9666 3.67027 41.2449C4.52919 38.6352 7.65026 35.3407 10.7606 33.7603C12.3966 32.929 15.1873 32.2387 16.935 32.233C20.4997 32.2214 23.4421 35.4516 23.5025 39.4435C23.584 44.822 18.7429 49.6927 12.7584 50.2529C11.7883 50.3437 10.9942 50.3148 10.9942 50.1884C10.9942 49.3928 15.9948 40.8998 17.6969 38.8044C18.6721 37.6039 18.9057 37.1195 18.7702 36.5786C18.5569 35.7261 17.3938 35.242 16.1311 35.4794C12.8537 36.0959 4.59832 49.3243 2.35705 57.5511C1.87595 59.3168 1.86072 61.8553 2.32573 62.7768C2.84549 63.8067 4.47275 64.8079 5.46542 64.7084C6.27581 64.6272 6.31503 64.5547 6.65956 62.5004C7.05149 60.1636 8.28513 56.1755 9.38672 53.6848L10.0955 52.082L11.3207 52.5087C12.1968 52.814 13.3506 52.9056 15.3679 52.8309C17.8287 52.7398 18.435 52.6108 20.1089 51.8223C24.886 49.5719 28.4698 43.6688 28.1445 38.5857C27.8169 33.4697 24.0225 29.2227 18.9271 28.2692C17.1433 27.9356 13.4415 27.9483 11.3673 28.2955ZM50.6054 36.4416C49.8478 37.0471 48.8125 38.062 48.3043 38.6971L47.3805 39.8518L45.1113 38.6889C42.9643 37.5886 42.7823 37.5442 41.7309 37.86C41.1197 38.0436 40.4188 38.5011 40.1733 38.8768C39.7227 39.5666 39.8282 40.1508 40.4033 40.1508C40.7343 40.1508 44.8545 42.6542 44.8545 42.8554C44.8545 42.9202 44.2284 44.0683 43.4631 45.4066C42.6979 46.7448 41.8415 48.4817 41.5599 49.2663C40.9829 50.8759 39.3691 52.4815 37.3384 53.4675C35.5895 54.3163 32.6242 54.1641 31.8335 53.1849C31.1634 52.355 30.9171 51.3852 31.1448 50.4753C31.3093 49.8177 31.3688 49.7948 31.9512 50.1646C33.6163 51.2213 36.5604 50.9081 38.7732 49.4386C41.1812 47.8392 41.962 44.8464 40.3844 43.2642C37.9625 40.8358 32.8172 41.8671 29.6659 45.4122C26.467 49.0111 25.1941 53.3105 26.4842 56.1588C28.2556 60.0694 33.7359 59.9673 38.6778 55.931L40.2422 54.6536L40.5765 55.9061C40.9868 57.4447 41.8968 58.3984 43.337 58.7993C44.8477 59.2201 46.1025 59.183 47.2964 58.6828C47.8537 58.4494 48.3415 58.2584 48.3808 58.2584C48.42 58.2584 48.5326 58.6616 48.6308 59.1541C48.8985 60.4958 50.1373 61.9334 51.5746 62.5711C53.8986 63.6018 57.7657 62.6817 59.4308 60.7021C61.0747 58.7473 61.2956 56.915 60.3738 52.8827C59.3896 48.5782 59.7612 46.4384 61.6289 45.6558C62.358 45.3505 62.6052 45.0467 62.7485 44.2805C62.9855 43.0138 62.7025 41.9067 62.053 41.5581C61.2956 41.1516 59.0479 41.2234 58.1729 41.6818C56.5312 42.5416 55.0126 44.8486 55.0126 46.4823C55.0126 47.2402 53.4796 49.3588 51.2357 51.702C49.6415 53.3668 48.6186 54.0144 47.5836 54.0144C45.7837 54.0144 45.92 51.8809 47.9784 47.8318L49.3661 45.1021L51.1511 45.0648C53.0715 45.0249 54.2028 44.5807 55.2516 43.4549C56.0501 42.5976 56.1873 40.9244 55.5143 40.2496C55.0933 39.8274 54.9973 39.8388 54.2914 40.3956C53.8704 40.7277 53.2138 40.9996 52.8325 40.9996C52.1728 40.9996 52.209 40.9108 53.5761 39.1665C54.3661 38.1584 55.0126 37.1979 55.0126 37.0318C55.0126 36.8657 54.7008 36.4176 54.3199 36.0356C53.3043 35.0171 52.2423 35.1334 50.6054 36.4416ZM34.4856 45.5073C33.2514 46.4036 31.8747 48.0483 31.8747 48.6263C31.8747 49.1265 33.6453 48.7859 35.252 47.9764C36.7568 47.2182 37.7687 45.7455 37.2309 45.0962C36.6981 44.4522 35.7404 44.5957 34.4856 45.5073ZM53.8182 51.4666C52.4849 53.418 52.4829 53.424 52.7623 54.9006C53.1079 56.7277 53.6861 57.4096 54.8901 57.4096C55.9421 57.4096 57.268 56.0988 57.273 55.0536C57.2761 54.3916 55.5284 49.487 55.2948 49.5023C55.2172 49.5074 54.5526 50.3912 53.8182 51.4666ZM14.0981 64.7658C14.0981 66.149 14.117 66.1804 14.9446 66.1804C15.4102 66.1804 15.7911 66.0673 15.7911 65.9289C15.7911 65.7906 15.569 65.6952 15.2973 65.7167C14.9105 65.7476 14.7846 65.4958 14.7169 64.5536C14.5956 62.8744 14.0981 63.045 14.0981 64.7658ZM18.6692 63.6907C18.483 63.8774 18.3306 64.3612 18.3306 64.7658C18.3306 65.1704 18.483 65.6542 18.6692 65.8409C19.4672 66.641 21.1523 65.9114 21.1523 64.7658C21.1523 63.6202 19.4672 62.8905 18.6692 63.6907ZM24.0273 64.7658C24.3499 65.5438 24.7068 66.1804 24.8205 66.1804C24.9342 66.1804 25.2912 65.5438 25.6137 64.7658C25.9373 63.9852 26.0697 63.3511 25.9091 63.3511C25.7488 63.3511 25.4743 63.7331 25.2985 64.1999C25.1227 64.6668 24.9077 65.0487 24.8205 65.0487C24.7333 65.0487 24.5183 64.6668 24.3425 64.1999C24.1667 63.7331 23.8922 63.3511 23.7319 63.3511C23.5714 63.3511 23.7037 63.9852 24.0273 64.7658ZM28.7709 64.7658V66.1804H29.7585C30.3016 66.1804 30.7461 66.0749 30.7461 65.9459C30.7461 65.8166 30.4732 65.7212 30.1397 65.7337C29.8062 65.7459 29.4783 65.597 29.4108 65.4024C29.3383 65.1933 29.5285 65.0487 29.8761 65.0487C30.1995 65.0487 30.4639 64.9214 30.4639 64.7658C30.4639 64.6102 30.2099 64.4829 29.8996 64.4829C29.5892 64.4829 29.3352 64.3555 29.3352 64.1999C29.3352 64.0443 29.6527 63.917 30.0406 63.917C30.4286 63.917 30.7461 63.7897 30.7461 63.6341C30.7461 63.4785 30.3016 63.3511 29.7585 63.3511H28.7709V64.7658ZM33.5677 64.7658C33.5677 65.5438 33.6947 66.1804 33.8499 66.1804C34.0051 66.1804 34.1321 65.9895 34.1321 65.756C34.1321 65.5226 34.263 65.3316 34.423 65.3316C34.5833 65.3316 34.7873 65.5226 34.8764 65.756C34.9659 65.9895 35.2314 66.1804 35.4665 66.1804C35.8042 66.1804 35.8243 66.0958 35.5613 65.7781C35.3048 65.4683 35.309 65.2462 35.5802 64.8111C36.0551 64.0486 35.4817 63.3511 34.3798 63.3511C33.5934 63.3511 33.5677 63.3958 33.5677 64.7658ZM38.835 63.5398C38.3923 63.9838 38.6821 64.7638 39.3522 64.9324C39.7402 65.03 40.0576 65.2023 40.0576 65.3152C40.0576 65.7427 39.6826 65.8678 39.1911 65.6038C38.8618 65.427 38.6208 65.4276 38.5113 65.6055C38.3008 65.9467 39.6124 66.3038 40.219 66.0704C40.8347 65.8333 40.6093 64.9653 39.8443 64.628C39.0523 64.2786 39.0257 63.917 39.7921 63.917C40.1115 63.917 40.2947 63.7897 40.1987 63.6341C40.0018 63.3144 39.1205 63.2535 38.835 63.5398ZM19.2203 63.9869C18.7426 64.4659 18.8239 65.5266 19.3541 65.7306C19.9314 65.9527 20.588 65.4261 20.588 64.7412C20.588 64.0548 19.6619 63.5441 19.2203 63.9869ZM34.1321 64.3414C34.1321 64.5771 34.3829 64.7658 34.6964 64.7658C35.0099 64.7658 35.2608 64.5771 35.2608 64.3414C35.2608 64.1057 35.0099 63.917 34.6964 63.917C34.3829 63.917 34.1321 64.1057 34.1321 64.3414Z" fill="white"/>
</svg>
