<svg width="222" height="209" viewBox="0 0 222 209" fill="none" xmlns="http://www.w3.org/2000/svg">
<path fill-rule="evenodd" clip-rule="evenodd" d="M32.5806 0.364862C25.8029 1.42011 20.8175 3.83529 16.0772 8.35994C9.17606 14.9467 6.48525 25.7449 9.4397 34.9939C10.9928 39.8558 14.1317 44.2117 18.3203 47.3176C19.1601 47.9404 19.8897 48.4911 19.9419 48.5418C19.9938 48.5923 19.4464 49.3768 18.725 50.285C16.4001 53.2121 14.9615 57.2123 14.7063 61.4578L14.5577 63.9334L13.5126 64.0621C12.9377 64.1327 11.7804 64.2602 10.9406 64.3454C6.07631 64.8379 2.25665 66.8595 0.905389 69.656C-0.471063 72.5049 -0.286569 75.2864 1.51715 78.878L2.67449 81.1817L2.7572 86.3991C2.83329 91.2139 2.89334 91.7931 3.53284 93.9108C3.91404 95.1728 4.79325 97.3797 5.48644 98.8148C8.0238 104.067 11.4946 106.371 18.4178 107.397C19.8711 107.612 21.1033 107.832 21.1562 107.885C21.2089 107.938 21.9441 110.494 22.7899 113.566C24.4685 119.663 27.8408 131.692 30.7886 142.097C37.9419 167.347 39.3807 172.234 39.9919 173.359C40.9411 175.106 43.1008 177.422 45.4573 179.22L47.4577 180.745V185.039C47.4577 189.29 47.4498 189.35 46.6843 190.989C46.2591 191.899 45.7626 193.375 45.5812 194.268L45.2514 195.892L42.9827 196.057C41.7351 196.148 38.4811 196.356 35.7519 196.52C21.0745 197.402 7.20821 198.952 3.5196 200.123C1.91412 200.633 2.33274 201.866 4.27641 202.352C8.96052 203.524 18.6405 204.633 34.6067 205.826C37.5459 206.046 41.3248 206.332 43.0044 206.463C45.9927 206.696 48.3033 206.833 53.9468 207.11C55.4863 207.185 57.3758 207.303 58.1456 207.371C60.7143 207.599 74.9356 208.24 86.774 208.662C108.368 209.431 140.594 208.86 166.806 207.245C187.871 205.946 198.649 205.068 207.777 203.907C216.453 202.803 219.737 202.041 219.737 201.131C219.737 200.692 218.947 200.111 218.008 199.86C214.29 198.867 197.103 197.049 185.51 196.423C184.25 196.355 181.83 196.221 180.13 196.125L177.041 195.951L176.643 194.332C176.424 193.442 175.896 191.919 175.47 190.946C174.706 189.204 174.695 189.114 174.695 184.862V180.547L176.639 179.169C179.147 177.39 181.121 175.19 182.22 172.948C182.789 171.788 184.487 166.289 187.061 157.267C192.522 138.123 198.603 116.356 199.784 111.722L200.768 107.861L203.445 107.428C208.69 106.58 211.649 105.221 214.13 102.52C215.82 100.68 216.831 98.8803 217.916 95.7806C219.288 91.8612 219.537 90.0765 219.337 85.5878L219.16 81.5991L220.508 78.9012C221.712 76.4926 221.868 75.9909 221.97 74.2215C222.103 71.9004 221.814 70.6402 220.774 68.9972C219.051 66.2751 215.432 64.7434 209.149 64.0772L207.596 63.9122L207.438 61.5748C207.16 57.4573 205.956 54.0743 203.537 50.6161L202.094 48.552L202.817 48.0307C208.017 44.2834 211.2 39.8275 213.025 33.7418C213.649 31.6609 213.713 31.0676 213.711 27.368C213.71 23.7691 213.631 22.9884 213.036 20.7392C212.225 17.6747 210.252 13.4924 208.501 11.1257C201.993 2.33106 188.942 -1.95547 177.621 0.984144C176.502 1.27479 174.326 2.12608 172.786 2.8759C171.247 3.62546 169.425 4.37247 168.738 4.53564C161.856 6.17015 155.54 12.3706 152.891 20.0898L152.056 22.5239H111.07H70.0838L69.3165 20.2293C67.8472 15.8359 64.8986 11.5155 61.4497 8.70311C59.2956 6.94648 55.8558 5.1692 53.3849 4.53615C52.2996 4.258 50.4289 3.52195 49.2281 2.90063C46.4696 1.47314 43.3545 0.564491 40.0573 0.225659C36.8234 -0.1068 35.4467 -0.0813057 32.5806 0.364862ZM34.0341 7.61242C24.9878 8.86806 18.1669 14.4691 15.8575 22.5384C15.0414 25.3903 15.047 29.4038 15.8708 32.0846C16.7729 35.0194 18.0822 37.278 20.1706 39.5025C22.7502 42.2496 27.0371 44.8323 29.0177 44.8323C29.9967 44.8323 29.7656 44.5138 28.1876 43.6878C26.2989 42.6988 22.6067 39.0507 21.429 37.0095C19.5143 33.6916 18.5415 29.4611 18.9535 26.2444C19.1436 24.7606 19.6548 24.1451 20.5116 24.3695C21.3903 24.5997 21.6898 25.4724 21.8476 28.2603C22.1265 33.1916 23.3755 36.3087 26.1887 39.0963C28.1705 41.0602 30.4888 42.3727 32.7256 42.7977C33.4555 42.9364 34.094 43.0088 34.1441 42.9586C34.1942 42.9084 33.2883 42.3194 32.1307 41.6494C27.1873 38.7889 23.8208 33.7591 23.7977 29.1996C23.79 27.6777 24.1392 26.9855 24.9145 26.9855C25.7889 26.9855 26.1004 27.522 26.4724 29.6689C27.115 33.3759 29.0365 36.3097 32.2602 38.5056C35.379 40.6301 40.1082 42.157 44.9285 42.5958C47.6396 42.8426 48.3672 42.8276 49.7225 42.4959C51.5906 42.0385 51.8817 42.2687 51.1096 43.5924C50.4997 44.6385 49.4349 45.1711 46.3125 45.9921C44.9129 46.36 42.9089 47.1205 41.8592 47.6821C39.6181 48.8812 35.1365 51.7716 34.225 52.606C33.4539 53.3118 32.5467 53.6192 32.32 53.2513C31.8266 52.4515 34.7604 49.6509 38.2032 47.6352C40.1828 46.4765 40.0423 46.426 36.7341 47.108C32.4931 47.9825 30.2114 49.002 27.2829 51.3308C21.7616 55.7211 19.9482 63.5356 22.8991 70.2208C23.4969 71.5746 23.5305 71.6024 24.5708 71.6024C25.778 71.6024 25.7724 71.7844 24.6532 68.9253C24.0819 67.4663 23.9519 66.7223 23.9402 64.8461C23.9315 63.4806 24.0498 62.345 24.2326 62.0416C24.5196 61.5646 24.54 61.5786 24.5473 62.2588C24.5641 63.8541 27.3695 70.8538 28.2136 71.4073C28.5067 71.5995 30.1534 71.6811 30.1534 71.5034C30.1534 71.4491 29.8122 70.6743 29.3953 69.7815C28.4856 67.8339 28.1176 66.0464 28.1176 63.5746C28.1176 60.4242 28.9352 59.1147 30.2534 60.1537C30.8749 60.6434 30.9168 60.8127 30.9168 62.833C30.9168 65.1265 31.3197 66.6853 32.7022 69.7399L33.4338 71.3566L38.219 71.3466C40.851 71.3413 43.4624 71.4486 44.0223 71.5855C46.2754 72.1355 51.0246 70.4543 53.9984 68.0542C54.7975 67.4091 56.0345 66.0219 56.747 64.9715C57.9392 63.2139 58.3077 62.3152 59.4653 58.3448C59.7157 57.4856 59.9404 57.1774 60.3606 57.1177C60.843 57.0489 60.9792 57.2373 61.3362 58.4679C61.7156 59.7751 61.7172 60.0655 61.3556 61.8422C60.8901 64.1294 59.7702 66.5663 57.8107 69.5566C57.0318 70.7452 56.4165 71.7347 56.4432 71.7551C56.4696 71.7757 57.0023 71.7209 57.6265 71.6337C58.6113 71.4958 58.8897 71.3064 59.734 70.2001C60.8499 68.738 61.9251 66.5971 62.7429 64.2087C63.3855 62.3315 63.7293 57.3609 63.3013 56.131C62.9824 55.2142 63.3186 54.2655 63.9626 54.2655C65.2795 54.2655 65.7307 59.2504 64.7607 63.0844C63.9387 66.3327 62.3722 69.7942 60.9922 71.4111C60.642 71.8216 60.672 71.8573 61.3655 71.8573C61.9882 71.8573 62.3075 71.6024 63.2007 70.3913C64.8245 68.1901 66.4741 64.6449 67.2044 61.7867C67.7368 59.7034 67.8347 58.8292 67.7406 57.0063C67.6207 54.6898 67.8744 54.1388 68.4083 55.5559L68.7025 56.3365L110.849 56.257L152.996 56.1777L153.769 55.3491C154.193 54.8932 154.59 54.5205 154.649 54.5205C154.708 54.5205 154.705 55.7705 154.643 57.2985C154.542 59.7486 154.608 60.3582 155.205 62.4613C156.49 66.9913 159.289 71.8573 160.609 71.8573H161.258L160.713 71.0287C158.095 67.043 156.447 61.4335 156.76 57.5799C157.003 54.6028 157.624 53.5157 158.552 54.445C158.848 54.7418 158.921 55.1155 158.814 55.7728C158.346 58.6285 158.364 60.2949 158.883 62.4773C159.174 63.6986 159.746 65.4353 160.154 66.3366C160.905 67.9981 162.65 70.7503 163.28 71.2696C163.659 71.5812 165.534 71.9445 165.534 71.7061C165.534 71.6245 164.851 70.466 164.015 69.1316C161.981 65.8812 160.912 63.0907 160.759 60.6315C160.664 59.0949 160.72 58.6449 161.039 58.3795C161.822 57.7281 162.259 58.1551 162.963 60.261C163.339 61.3848 164.035 62.9911 164.509 63.8304C165.661 65.8677 168.824 68.9876 170.777 70.0122C172.929 71.1419 176.068 71.8698 177.521 71.5769C178.136 71.453 180.829 71.3538 183.504 71.3561C189.151 71.3612 188.473 71.7173 190.074 67.9055C190.879 65.9885 191.06 65.225 191.171 63.2651C191.285 61.252 191.386 60.8418 191.883 60.3737C194.27 58.1271 194.806 65.0032 192.628 69.9368C192.282 70.7205 191.999 71.416 191.999 71.4823C191.999 71.5483 192.392 71.6024 192.871 71.6024C193.675 71.6024 193.792 71.4971 194.366 70.2639C195.874 67.0165 196.2 65.5602 196.174 62.1691C196.146 58.524 195.655 56.6297 193.716 52.6833C192.923 51.0677 192.772 50.6003 193.16 50.9659C194.111 51.8611 195.77 55.0893 196.756 57.9624C197.686 60.6725 197.718 60.8826 197.712 64.2087C197.706 67.3265 197.641 67.8214 197.015 69.4661C196.636 70.4648 196.325 71.3538 196.325 71.442C196.325 71.5302 196.821 71.6024 197.427 71.6024C198.494 71.6024 198.546 71.5644 199.08 70.3913C200.406 67.4818 200.783 63.2052 200.006 59.9008C198.852 54.9998 194.268 50.1531 188.818 48.074C187.601 47.6092 183.603 46.634 182.869 46.6226C182.676 46.6195 183.421 47.2054 184.523 47.9246C186.873 49.4574 191.122 53.594 191.372 54.5929C191.614 55.5604 191.359 56.0502 190.614 56.0502C190.152 56.0502 189.86 55.8225 189.551 55.2216C189.317 54.7658 188.49 53.6661 187.713 52.7776C185.244 49.954 179.124 46.7011 174.44 45.7218C172.507 45.3177 170.623 43.9017 170.623 42.852C170.623 42.2906 170.689 42.259 171.45 42.4538C172.837 42.8082 178.224 42.6341 180.548 42.1596C185.301 41.189 189.68 38.9788 192.298 36.2289C194.02 34.4202 194.854 32.8354 195.417 30.2999C196.126 27.1089 196.12 27.1217 197.016 27.0342C197.77 26.9606 197.843 27.0266 198.109 28.0133C198.527 29.5705 198.047 32.3087 196.966 34.5266C196.284 35.9262 195.584 36.813 193.847 38.4783C191.998 40.251 189.322 42.1716 188.068 42.6259C187.921 42.6792 187.887 42.8156 187.992 42.9288C188.28 43.2378 190.476 42.656 192.326 41.7797C193.228 41.3529 194.709 40.3219 195.617 39.4885C198.472 36.8673 199.899 33.3364 200.25 28.0247C200.403 25.7123 200.508 25.2695 201.057 24.616C201.626 23.9386 201.673 23.7122 201.536 22.3021C201.341 20.2884 201.681 20.7861 202.549 23.7844C204.764 31.4452 201.003 39.7969 193.59 43.6766C191.166 44.945 192.392 45.2981 195.264 44.1592C200.109 42.2384 204.489 37.6383 206.035 32.8495C206.399 31.7198 206.609 30.2535 206.694 28.2425C206.84 24.7746 206.333 22.2819 204.858 19.2074C201.151 11.4872 191.93 6.56762 183.137 7.61879C177.319 8.3143 172.653 10.6522 168.573 14.9161C165.773 17.8427 164.668 19.5906 162.585 24.3894C162.303 25.0387 162.085 25.2164 161.649 25.1542C159.85 24.8982 162.132 19.1312 165.705 14.9061C166.52 13.9416 167.357 12.9198 167.563 12.6355C167.925 12.1386 167.915 12.1315 167.309 12.4502C165.926 13.178 163.459 15.3671 162.337 16.8629C159.961 20.0289 158.56 23.4631 158.106 27.2306C157.945 28.568 157.707 29.7332 157.579 29.8194C157.144 30.1105 64.7731 30.0146 64.5932 29.723C64.5021 29.5751 64.2731 28.4112 64.0845 27.1365C63.6759 24.3766 63.2122 22.8798 62.0246 20.4842C60.3346 17.076 57.967 14.3684 55.2192 12.7018C53.9977 11.9609 54.0315 12.0198 56.6783 15.248C58.5983 17.5898 60.483 21.1211 60.9654 23.2811C61.2451 24.5332 61.2344 24.7652 60.8804 25.1198C60.2178 25.7837 59.8259 25.3745 58.9719 23.1266C56.701 17.1479 51.2519 11.7062 44.9725 9.14596C41.6264 7.78171 37.2423 7.16701 34.0341 7.61242ZM35.2098 12.4588C32.2956 12.9132 29.6445 14.2068 29.6445 15.1746C29.6445 15.3604 29.8643 15.7329 30.1328 16.0019C30.6145 16.4845 30.6476 16.483 32.5037 15.8925C35.1554 15.0489 37.0436 14.8941 40.1657 15.2648C43.1359 15.6177 43.6406 15.4833 43.6406 14.3401C43.6406 13.6851 42.8993 13.0801 41.661 12.7242C40.4199 12.3678 36.7611 12.2171 35.2098 12.4588ZM181.566 12.5504C179.899 12.9185 179.125 13.3124 178.773 13.9702C178.125 15.1843 179.269 15.738 181.498 15.2896C184.156 14.7547 186.843 15.0063 190.254 16.1095C191.296 16.4465 191.498 16.4473 191.972 16.1151C193.706 14.8985 191.127 13.0832 186.782 12.4626C184.531 12.1412 183.326 12.1613 181.566 12.5504ZM46.6892 16.0322C46.2515 16.8514 46.5981 17.4215 48.2946 18.6728C49.9609 19.9017 51.3758 21.4314 52.7996 23.5437C53.832 25.0757 54.0422 25.2358 54.6155 24.9283C55.3965 24.5097 55.4311 23.7224 54.7316 22.2896C54.0094 20.8108 50.4854 16.8731 49.137 16.0381C48.0422 15.3602 47.0493 15.3579 46.6892 16.0322ZM173.416 15.9318C172.231 16.7211 169.56 19.4639 168.612 20.8667C167.285 22.8273 166.946 23.7459 167.303 24.4128C167.715 25.1851 168.215 25.0711 169.022 24.0207C170.684 21.8564 172.53 19.9366 174.191 18.6432C176.04 17.2043 176.303 16.6607 175.502 15.9346C174.911 15.3995 174.216 15.3984 173.416 15.9318ZM63.4896 34.3792C62.7732 35.0969 62.8455 36.0203 63.6687 36.6692C64.3281 37.1888 64.5762 37.2081 69.6227 37.1337C74.3803 37.0636 74.9404 37.0093 75.4237 36.5705C76.1003 35.9563 76.1064 35.144 75.44 34.4274C74.9374 33.8866 74.7503 33.8693 69.4598 33.8693C64.3377 33.8693 63.967 33.9009 63.4896 34.3792ZM87.6647 34.0462C86.5205 34.4559 86.3312 35.8781 87.3173 36.6552C87.984 37.1809 88.1105 37.1837 110.487 37.1837C135.591 37.1837 134.488 37.2594 134.488 35.5344C134.488 33.7691 135.904 33.867 110.701 33.8894C98.2411 33.9004 87.8746 33.971 87.6647 34.0462ZM141.104 34.3792C140.465 35.0196 140.458 35.6823 141.082 36.4543L141.568 37.0562H149.707C157.354 37.0562 157.878 37.0269 158.382 36.5705C159.095 35.9234 159.081 34.7774 158.352 34.2662C157.869 33.9272 156.607 33.8693 149.7 33.8693C141.952 33.8693 141.592 33.8907 141.104 34.3792ZM79.5724 34.4302C78.897 35.1068 79.496 36.6738 80.4302 36.6738C80.8134 36.6738 81.8117 35.7937 81.8117 35.4559C81.8117 35.3467 81.6334 35.0026 81.4155 34.691C80.9847 34.0745 80.0582 33.9435 79.5724 34.4302ZM102.769 48.6566C71.905 48.7802 70.9062 48.7991 70.3871 49.2697C69.6677 49.9219 69.712 50.7311 70.5082 51.4804L71.1648 52.0984H110.917C148.545 52.0984 150.706 52.0742 151.358 51.6464C152.212 51.0855 152.284 49.9709 151.511 49.2697C151.092 48.8893 150.526 48.771 148.903 48.7236C143.172 48.5569 131.816 48.5403 102.769 48.6566ZM30.7133 54.0616C29.9384 54.8379 30.6278 56.1632 31.7248 56.0061C32.3638 55.9146 32.8796 54.8522 32.6175 54.1679C32.431 53.6809 31.1637 53.6103 30.7133 54.0616ZM72.7367 64.0175L72.483 64.8461H111.12C132.37 64.8461 149.756 64.8346 149.756 64.8203C149.756 64.8063 149.631 64.4333 149.477 63.9917L149.198 63.1889H111.094H72.9906L72.7367 64.0175ZM80.9211 69.5987C80.0813 69.6887 78.1346 69.7756 76.595 69.7919C73.3886 69.8258 69.6115 70.2111 69.286 70.5372C69.1605 70.6629 83.9511 70.7052 103.425 70.6348C135.784 70.518 137.794 70.5364 137.953 70.9502C138.058 71.2245 137.933 71.5792 137.619 71.8933C137.125 72.3879 136.669 72.3965 111.436 72.394C86.2281 72.3912 78.2323 72.5166 79.5215 72.8947C80.4149 73.1568 141.868 73.1798 141.868 72.9182C141.868 72.8004 141.581 72.5732 141.232 72.4136C140.571 72.1123 140.447 71.7219 140.822 71.1289C140.999 70.8492 142.074 70.8046 146.426 70.8974C149.388 70.9604 151.868 70.9211 151.937 70.81C152.565 69.7904 144.086 69.5125 111.076 69.4712C95.3307 69.4513 81.7608 69.5089 80.9211 69.5987ZM6.07224 76.7261C6.36412 78.1875 6.81912 78.4201 10.5502 79.0146C14.402 79.628 15.1394 79.845 15.1394 80.3646C15.1394 80.9795 14.5101 81.0244 11.019 80.6575C9.16232 80.4622 7.60927 80.3365 7.56804 80.3776C7.52682 80.4189 7.56142 80.631 7.64489 80.8487C8.11847 82.0853 30.4669 83.9931 52.0382 84.6386C65.6697 85.0465 157.447 85.0511 169.86 84.6445C193.264 83.8778 214.025 82.1097 214.511 80.8416C214.592 80.6277 214.62 80.4133 214.572 80.3651C214.524 80.3169 212.799 80.4661 210.738 80.6965C208.035 80.9987 206.914 81.0382 206.714 80.8378C206.114 80.2366 206.725 79.8363 208.708 79.5319C210.846 79.2038 214.514 78.5266 215.181 78.3369C215.587 78.2217 216.333 76.2657 216.071 76.0036C215.996 75.9274 214.528 76.0533 212.809 76.283C205.78 77.2236 189.485 77.7207 143.395 78.4012C123.689 78.6923 64.8673 78.4841 64.2812 78.1213C64.1627 78.0478 59.8994 77.9668 54.8074 77.941C45.5804 77.8946 31.422 77.5055 19.3349 76.9666C13.3507 76.6996 10.5281 76.4839 7.27489 76.0457L5.89945 75.8603L6.07224 76.7261ZM164.987 88.4693C162.641 91.2169 160.11 93.795 158.844 94.7284C157.82 95.4823 157.316 95.6613 155.701 95.8425C152.208 96.2352 150.568 97.7919 148.584 102.603L147.49 105.256H150.386H153.282L154.032 104.344C154.445 103.843 155.107 102.782 155.503 101.986C157.987 97.0028 159.977 95.0652 164.436 93.2877C166.2 92.5842 166.58 92.3252 166.929 91.5904C167.769 89.816 167.612 87.2914 166.641 86.9709C166.481 86.9179 165.736 87.5923 164.987 88.4693ZM27.3471 88.3102C26.8173 88.9499 26.7318 91.0882 27.1903 92.236C27.5853 93.2252 27.5799 93.2785 27.0145 93.937C26.4951 94.542 26.3656 94.5818 25.8368 94.2983C25.5103 94.1231 24.5351 93.3203 23.6704 92.5141C22.2273 91.1693 21.9738 91.0339 20.5908 90.871C19.7619 90.7733 18.9112 90.644 18.7005 90.5839C18.3906 90.4952 18.3346 90.6938 18.4079 91.6187C18.497 92.7413 18.484 92.7635 17.734 92.7635C17.0729 92.7635 16.8627 92.5743 16.1823 91.3663C15.6855 90.4844 15.1837 89.921 14.8221 89.8387C12.1633 89.2336 12.0432 89.2255 12.2125 89.6632C12.3023 89.896 12.4394 90.4021 12.5171 90.7876C12.6349 91.373 12.571 91.4887 12.1295 91.4887C11.7473 91.4887 11.46 91.1703 11.094 90.3414C10.5981 89.2183 10.5624 89.1941 9.40076 89.1941C8.53046 89.1941 8.248 89.2826 8.34139 89.5263C8.41137 89.7089 8.66711 90.5673 8.90988 91.4341C9.15265 92.3007 9.48474 93.1209 9.64811 93.2565C9.81149 93.3924 12.5166 93.8656 15.6596 94.3082C18.8026 94.7506 23.7503 95.4797 26.6544 95.9285C31.6561 96.7012 31.9347 96.7193 31.9347 96.2749C31.9347 95.6003 30.77 93.3654 29.602 91.799C28.9172 90.8809 28.6469 90.2968 28.7523 89.9633C28.9139 89.4537 28.265 87.9194 27.8878 87.9194C27.7685 87.9194 27.5252 88.0953 27.3471 88.3102ZM58.863 88.5562C58.6449 89.0355 58.6487 89.5304 58.878 90.5574C59.2248 92.1098 59.8735 92.8341 61.8729 93.9013C64.6304 95.3734 65.4869 96.3841 68.0393 101.177C70.1036 105.053 70.3461 105.256 72.9194 105.256C74.7547 105.256 74.9409 105.21 74.9409 104.759C74.9409 103.716 73.4192 99.7864 72.4942 98.4408C71.3208 96.7339 70.1385 95.932 68.4518 95.699C67.752 95.6024 66.8344 95.3112 66.4125 95.0519C65.574 94.5369 62.4607 91.3778 60.7028 89.2579C60.0923 88.5218 59.4938 87.9194 59.3727 87.9194C59.2516 87.9194 59.0223 88.2059 58.863 88.5562ZM176.827 88.748C176.406 89.2038 175.299 90.4944 174.368 91.6162C173.437 92.738 171.912 94.336 170.98 95.1674L169.285 96.679L168.138 96.0695C165.979 94.9219 162.935 95.7393 161.125 97.9528C160.28 98.9848 158.694 101.902 157.811 104.045L157.417 105.001H159.166H160.915L162.49 102.908C163.356 101.757 164.121 100.667 164.19 100.486C164.371 100.014 165.534 100.066 165.534 100.545C165.534 100.759 165.19 101.692 164.77 102.62C164.351 103.548 164.007 104.401 164.007 104.517C164.007 104.705 166.252 104.639 166.417 104.445C166.455 104.4 167.295 102.925 168.285 101.166C170.538 97.1614 171.592 95.9611 174.442 94.1507C177.528 92.1909 178.806 90.1568 178.103 88.3227C177.883 87.7488 177.693 87.8123 176.827 88.748ZM68.3671 89.9465C68.4854 92.0465 68.9005 92.6166 71.2057 93.8475C73.7571 95.21 75.9021 98.2858 77.8727 103.408C78.5244 105.102 78.6445 105.256 79.3072 105.256C79.7049 105.256 80.0304 105.178 80.0304 105.082C80.0304 104.987 79.7866 104.003 79.4886 102.897C78.939 100.855 79.028 100.238 79.8286 100.546C80.2096 100.693 80.4508 101.179 81.469 103.854L81.9542 105.129L83.7916 105.204C84.8021 105.245 85.6289 105.218 85.6289 105.145C85.6289 105.072 85.3304 104.121 84.9657 103.032C83.3327 98.1588 81.544 96.0855 78.9616 96.0723C77.2951 96.0638 75.9616 95.313 74.417 93.5141C71.6155 90.2514 69.4499 88.1743 68.8501 88.1743C68.289 88.1743 68.2709 88.2403 68.3671 89.9465ZM151.977 91.4117C147.444 96.4718 147.825 96.1992 145.223 96.2398C144.007 96.2589 142.669 96.4088 142.249 96.5732C141.145 97.0059 139.381 98.8112 138.633 100.276C137.941 101.631 136.778 104.596 136.778 105.007C136.778 105.145 137.546 105.256 138.496 105.255L140.214 105.254L141.063 103.088C141.723 101.405 142.023 100.922 142.407 100.922C142.679 100.922 142.965 101.088 143.043 101.291C143.164 101.607 142.706 103.59 142.218 104.864C142.098 105.177 142.275 105.256 143.091 105.256H144.113L144.77 103.535C145.735 101.009 147.802 97.8177 149.454 96.3043C150.756 95.1103 153.489 93.5291 154.251 93.5286C154.76 93.5281 155.836 92.0246 156.016 91.0604C156.239 89.8708 155.86 88.3309 155.319 88.2273C155.052 88.1764 153.847 89.3247 151.977 91.4117ZM34.8121 89.5128C34.9159 90.2894 35.1788 90.795 35.7401 91.2975C36.5817 92.0509 37.5332 92.2288 37.5332 91.6328C37.5332 90.4253 36.0557 88.4293 35.1617 88.4293C34.7266 88.4293 34.6843 88.5598 34.8121 89.5128ZM122.4 89.031C121.8 89.9485 121.362 92.3693 121.649 93.1826C122.021 94.2369 122.427 94.1729 123.145 92.947C123.859 91.7248 124.004 90.1757 123.505 89.0786C123.138 88.2727 122.903 88.2625 122.4 89.031ZM130.819 90.0227C129.968 90.8993 128.656 92.381 127.905 93.3157C125.865 95.8532 123.88 97.0977 121.873 97.0977C120.702 97.0977 119.689 96.1495 118.442 93.8848C117.255 91.7301 114.819 88.9392 114.125 88.9392C113.693 88.9392 113.687 89.0317 114.032 90.5326C114.765 93.7277 115.12 94.4492 116.974 96.5062C119.46 99.2655 120.062 100.627 119.944 103.23C119.843 105.44 119.888 105.511 121.372 105.511C122.382 105.511 122.604 105.256 123.034 103.599C123.534 101.673 125.299 98.3969 126.583 97.0125C127.937 95.5532 129.177 94.8023 131.461 94.0586C133.348 93.4439 133.725 92.9613 133.724 91.158C133.723 90.1721 132.967 88.4293 132.541 88.4293C132.445 88.4293 131.671 89.1465 130.819 90.0227ZM185.54 89.4498C185.033 90.011 184.618 90.6134 184.616 90.7883C184.614 90.9632 184.539 91.3814 184.449 91.7174C184.298 92.2857 184.338 92.3155 185.024 92.1432C185.997 91.8984 186.339 91.5899 186.935 90.4187C187.319 89.6655 187.371 89.3259 187.162 88.9356C186.784 88.2268 186.586 88.2896 185.54 89.4498ZM79.5143 89.0751C79.0723 89.6089 78.9072 91.7141 79.24 92.5766C79.4444 93.1066 79.9721 93.4937 81.3618 94.1328C84.6191 95.6312 87.0122 98.7722 88.2823 103.216L88.8289 105.129L89.901 105.273C91.1324 105.439 91.1311 105.443 90.7008 103.111C90.3667 101.3 90.5033 100.789 91.2191 101.173C91.5551 101.353 91.9146 102.091 92.2801 103.351L92.8325 105.256H94.4474C95.5717 105.256 96.061 105.159 96.0585 104.937C96.0501 104.265 95.0442 100.641 94.6579 99.8927C94.0983 98.8084 92.5546 97.1392 91.7044 96.6987C91.3153 96.4973 90.2952 96.3328 89.4335 96.3328C87.171 96.3328 86.4182 95.8645 84.1623 93.0536C82.1739 90.5762 80.3849 88.6842 80.0309 88.6842C79.9251 88.6842 79.6925 88.8601 79.5143 89.0751ZM90.431 89.5128C89.9898 90.5607 90.0101 92.5983 90.4674 93.1502C90.6593 93.3817 91.5815 93.9574 92.517 94.4293C95.4796 95.9241 97.9067 99.2696 98.9954 103.359C99.5211 105.334 99.6629 105.502 100.813 105.507C102.262 105.514 102.309 105.436 102.207 103.195C102.085 100.499 102.511 99.417 104.628 97.0518C105.544 96.0292 106.525 94.735 106.81 94.1759C107.371 93.0738 108.277 90.1122 108.277 89.3797C108.277 88.9657 108.215 88.958 107.569 89.2928C106.416 89.8904 104.618 92.0055 103.578 93.9875C102.128 96.753 100.468 97.6435 98.5048 96.7102C97.3499 96.161 95.164 93.7726 93.8914 91.6692C92.0505 88.6269 91.0634 88.0117 90.431 89.5128ZM98.7674 89.2579C98.4722 90.3616 98.6114 91.7722 99.1124 92.7563C99.7759 94.0597 100.08 94.2129 100.389 93.3996C100.779 92.3721 100.683 90.9638 100.141 89.7678C99.6033 88.5817 99.0076 88.3604 98.7674 89.2579ZM140.297 92.3018C138.065 94.5945 136.404 96.0957 136.015 96.1735C135.665 96.2431 134.414 96.3629 133.235 96.4394C130.71 96.6033 129.656 97.1632 128.268 99.0774C127.435 100.226 127.212 100.824 126.461 103.918L126.136 105.256H127.838H129.54L129.989 103.512C130.471 101.638 130.766 101.177 131.485 101.177C132.03 101.177 132.043 101.518 131.581 103.676L131.237 105.283L132.271 105.206L133.304 105.129L133.895 103.296C135.43 98.5318 138.481 95.2062 142.417 94.0087C143.873 93.5653 144.176 93.369 144.52 92.6426C145.074 91.4719 145.035 89.8998 144.432 89.1587L143.943 88.5567L140.297 92.3018ZM43.255 89.4552C42.9578 89.9371 43.4278 91.2636 44.2134 92.16C44.859 92.8968 46.5843 94.0382 47.052 94.0382C47.1202 94.0382 46.9996 93.4358 46.7846 92.6997C46.3716 91.2865 45.4936 90.151 44.3531 89.5539C43.5327 89.1243 43.4629 89.1181 43.255 89.4552ZM211.657 89.3629C211.483 89.4338 211.339 89.6487 211.339 89.8407C211.339 90.6374 210.736 91.4887 210.171 91.4887C209.641 91.4887 209.613 91.4211 209.83 90.6619C209.96 90.2071 210.067 89.7481 210.067 89.6421C210.067 89.3672 209.201 89.4034 207.898 89.7321C206.916 89.9796 206.68 90.1851 206.013 91.3694C204.86 93.4159 203.526 93.6035 203.783 91.683L203.919 90.6688L202.234 90.8495C199.926 91.0971 199.535 91.2842 197.674 93.0279C196.782 93.8641 195.885 94.5481 195.68 94.5481C195.115 94.5481 194.289 93.6013 194.289 92.9529C194.289 92.6365 194.402 91.9846 194.54 91.504C194.677 91.0234 194.737 90.5767 194.671 90.5117C194.606 90.4465 194.097 90.7101 193.539 91.0976C192.494 91.823 191.304 93.4567 190.612 95.1167C189.908 96.8055 189.886 96.7956 193.208 96.289C194.852 96.0381 199.004 95.4173 202.433 94.9094C205.862 94.4013 209.512 93.8577 210.545 93.7014L212.423 93.4174L212.899 92.303C213.162 91.6901 213.448 90.7399 213.535 90.1915C213.695 89.1944 213.694 89.1941 212.835 89.2143C212.362 89.2252 211.832 89.2923 211.657 89.3629ZM51.5293 91.3268C51.5293 92.4302 52.1782 93.239 54.256 94.7243C56.0414 96.0006 57.2733 97.5181 59.7015 101.432C61.9129 104.996 61.8309 104.926 63.927 105.069C64.9169 105.136 65.848 105.116 65.9962 105.025C66.3282 104.819 65.4946 101.397 64.6935 99.6768C63.8792 97.9283 61.8403 95.9945 60.3812 95.5868C59.7211 95.4025 59.034 95.3125 58.8543 95.3867C58.6744 95.4609 58.0998 95.7049 57.5774 95.9287L56.6277 96.3359L55.8307 94.7542C55.0166 93.1385 52.5675 90.4689 51.8995 90.4689C51.6489 90.4689 51.5293 90.746 51.5293 91.3268ZM32.8089 92.0624C32.9954 92.5182 33.345 93.8152 33.5855 94.9449C34.0176 96.9748 34.0362 97.0062 35.1706 97.6089C36.6438 98.3921 38.134 99.8563 39.5797 101.942C40.6632 103.505 40.791 103.604 41.832 103.679C43.6785 103.812 43.723 103.732 42.97 101.632C41.1528 96.5633 39.2198 94.296 35.0526 92.3451C33.7468 91.734 32.6317 91.2338 32.5742 91.2338C32.5167 91.2338 32.6223 91.6065 32.8089 92.0624ZM186.85 92.4993C182.582 94.4171 181.162 95.7791 179.021 100.008C178.181 101.667 177.494 103.182 177.494 103.375C177.494 103.632 177.879 103.726 178.923 103.726C180.484 103.726 180.252 103.894 182.615 101.049C183.843 99.5712 185.776 98.0446 187.298 97.3496C188.29 96.8965 188.373 96.7797 188.508 95.637C188.637 94.5484 188.995 93.305 189.575 91.9349C189.856 91.27 189.356 91.3735 186.85 92.4993ZM41.7554 92.817C42.2473 96.2375 42.4924 97.1316 43.4365 98.9494C44.6157 101.22 46.9513 103.562 48.4552 103.98C49.2909 104.213 50.7658 104.332 50.7658 104.167C50.7658 104.129 50.4167 103.182 49.9902 102.063C48.8186 98.9915 47.4562 96.434 46.4105 95.3436C45.6817 94.5838 43.2568 92.9766 41.829 92.3071C41.7424 92.2666 41.7094 92.496 41.7554 92.817ZM177.699 93.7555C175.512 94.5469 173.809 95.8053 172.658 97.4816C172.057 98.3577 169.605 103.946 169.605 104.441C169.605 104.725 172.622 104.134 173.295 103.718C175.405 102.414 177.678 99.2951 178.956 95.9504C179.385 94.8286 179.816 93.7099 179.914 93.4646C180.143 92.8938 180.045 92.9068 177.699 93.7555ZM50.1508 94.4844C50.9549 98.0487 52.438 101.646 53.8043 103.344C54.6028 104.337 54.6741 104.367 56.5126 104.491C57.8166 104.579 58.4008 104.53 58.4006 104.332C58.3998 103.851 56.6274 99.5919 55.9274 98.3885C54.9059 96.6326 53.307 95.0387 51.911 94.3845C50.2253 93.5946 49.9536 93.6099 50.1508 94.4844ZM107.318 96.6171C105.145 97.6948 103.492 100.585 103.843 102.695C104.245 105.108 104.584 105.499 106.284 105.508C107.575 105.514 107.732 105.334 107.46 104.157C107.124 102.699 107.356 100.673 108.134 98.2733C108.493 97.167 108.786 96.2204 108.786 96.1699C108.786 95.9708 108.358 96.1011 107.318 96.6171ZM113.502 96.8687C114.645 100.478 114.869 102.3 114.411 104.275L114.195 105.205L115.558 105.376C116.307 105.47 117.034 105.476 117.173 105.391C117.519 105.176 118.202 102.795 118.202 101.8C118.202 99.3267 115.83 96.3328 113.871 96.3328C113.439 96.3328 113.366 96.4394 113.502 96.8687ZM11.3223 97.3353C11.3223 97.9928 12.9489 98.622 16.2917 99.2579C18.2473 99.6299 21.7975 100.328 24.1809 100.81C29.021 101.789 35.834 102.958 35.9631 102.833C36.1756 102.626 35.1167 101.416 34.1792 100.794C33.2206 100.159 32.3276 99.9901 22.5726 98.6016C11.0482 96.9615 11.3223 96.9924 11.3223 97.3353ZM209.049 97.2744C208.699 97.3333 204.29 97.9538 199.252 98.6534C194.213 99.353 189.5 100.092 188.779 100.296C187.881 100.55 187.08 101.033 186.235 101.831L185.001 102.996L186.464 102.849C187.268 102.768 190.818 102.137 194.353 101.447C197.887 100.756 202.69 99.8463 205.026 99.4249C209.115 98.6873 210.373 98.2508 210.674 97.4648C210.818 97.0885 210.425 97.0424 209.049 97.2744ZM204.468 100.684C199.055 101.662 198.129 101.88 199.252 101.907C201.332 101.958 207.106 100.88 207.412 100.384C207.582 100.108 207.737 100.093 204.468 100.684ZM15.1394 100.647C16.098 101.198 23.691 102.322 23.2607 101.849C23.1047 101.678 15.9196 100.406 15.1829 100.42C14.8188 100.426 14.8127 100.459 15.1394 100.647ZM27.2196 107.995C27.3127 108.366 27.5395 109.031 27.7237 109.473C28.0425 110.237 28.1433 110.284 29.8058 110.43C30.7667 110.514 35.561 110.991 40.4596 111.491C48.3107 112.29 54.9853 112.833 62.5989 113.29C63.8586 113.366 65.5763 113.484 66.416 113.552C69.6621 113.815 77.1264 114.173 83.3386 114.363C93.8166 114.684 136.459 114.584 144.667 114.22C156.68 113.687 176.149 112.26 183.474 111.376C184.594 111.241 187.171 110.953 189.2 110.737C194.528 110.17 194.216 110.283 194.666 108.763C194.878 108.048 195.023 107.444 194.989 107.419C194.954 107.395 194.01 107.462 192.89 107.569C161.815 110.524 148.674 110.997 103.38 110.791C73.1001 110.654 66.4799 110.464 47.9666 109.206C42.8145 108.856 30.0598 107.73 27.9021 107.436C27.09 107.325 27.0585 107.351 27.2196 107.995ZM30.201 116.155C30.3445 116.681 31.6602 121.242 33.1244 126.29C34.5889 131.338 38.0162 143.212 40.7411 152.677C43.4657 162.143 45.9843 170.486 46.3377 171.219C47.0391 172.674 49.5584 175.143 51.36 176.141C52.2845 176.654 52.3667 176.666 52.0031 176.239C51.3305 175.451 50.364 172.439 48.7138 165.988C47.8633 162.663 46.7831 158.567 46.3128 156.884C45.8428 155.202 44.9269 151.874 44.2775 149.491C39.8443 133.219 38.4946 128.824 34.6108 118.004C33.8611 115.915 33.0188 114.688 33.298 116.092C33.8466 118.848 34.0494 120.304 33.9046 120.449C33.4448 120.91 32.929 120.095 32.207 117.766C31.439 115.29 31.3851 115.199 30.6753 115.199C29.9488 115.199 29.9432 115.211 30.201 116.155ZM191.133 115.593C190.917 115.81 190.613 116.47 190.458 117.059C190.303 117.649 189.258 121.172 188.136 124.888C187.013 128.604 185.467 133.766 184.699 136.36C181.979 145.552 177.709 159.443 177.411 160.068C177.244 160.417 176.909 160.741 176.665 160.788C175.801 160.955 175.931 160.37 179.271 149.108C180.373 145.392 181.979 139.943 182.84 136.998C183.7 134.053 185.21 129.062 186.194 125.907C187.178 122.752 188.204 119.368 188.475 118.386C188.746 117.405 189.027 116.401 189.101 116.155C189.174 115.91 189.127 115.709 188.995 115.709C188.736 115.709 185.343 125.741 182.829 133.938C180.89 140.263 175.607 158.499 172.794 168.578C171.718 172.433 170.745 175.296 170.349 175.775C170.194 175.963 170.106 176.23 170.154 176.37C170.324 176.863 174.177 173.738 175.16 172.309C176.174 170.837 176.368 170.262 178.657 161.983C180.412 155.633 181.593 151.491 183.599 144.646C188.956 126.361 191.999 115.797 191.999 115.479C191.999 115.08 191.592 115.134 191.133 115.593ZM38.0414 116.6C38.4887 117.778 39.1272 118.886 39.9527 119.916C41.3785 121.695 41.5495 122.115 42.7519 126.8C43.8042 130.9 48.5606 148.416 52.7866 163.755C54.286 169.198 54.5478 170.524 54.1226 170.524C53.4785 170.524 52.9429 169.636 52.4207 167.703C52.1011 166.52 51.2089 163.258 50.4381 160.454C49.6673 157.649 47.1264 148.356 44.7913 139.802C42.4565 131.249 40.3405 123.791 40.0896 123.23C39.6458 122.239 37.5663 120.013 37.8561 120.839C38.1531 121.686 39.0748 124.894 40.3013 129.349C40.9963 131.873 42.8217 138.47 44.3574 144.009C45.8934 149.548 48.1415 157.808 49.353 162.366C51.8522 171.766 52.4678 173.817 52.9406 174.321C53.2208 174.619 53.3373 174.523 53.6737 173.716C53.8938 173.188 54.074 172.662 54.074 172.548C54.074 172.433 54.1768 172.275 54.3023 172.198C54.4277 172.12 55.0148 173.036 55.607 174.233C56.8368 176.721 58.2291 178.329 60.0376 179.351C61.1558 179.983 61.2723 180.007 61.1016 179.563C59.948 176.567 59.0045 173.252 58.011 168.705C56.8152 163.233 53.0467 147.914 51.4336 141.969C48.441 130.94 43.9195 116.273 43.708 116.909C43.6548 117.069 44.4867 120.427 45.5565 124.372C46.6263 128.316 47.4381 131.71 47.3605 131.912C46.9561 132.968 46.4843 132.038 45.188 127.628C44.436 125.069 43.6146 122.517 43.3632 121.956C43.1115 121.395 42.644 119.937 42.3242 118.716L41.7424 116.496L40.3377 116.344C39.5649 116.261 38.6773 116.139 38.3651 116.075C37.8515 115.968 37.8207 116.018 38.0414 116.6ZM179.831 116.498C179.087 116.597 178.416 116.74 178.34 116.816C178.264 116.892 177.766 118.539 177.234 120.475C176.702 122.411 175.348 126.978 174.226 130.624C170.384 143.102 166.26 159.163 164.502 168.485C163.895 171.705 162.646 175.935 161.612 178.276C161.246 179.104 160.986 179.82 161.034 179.868C161.082 179.916 161.775 179.601 162.575 179.167C165.102 177.795 166.813 174.957 168.858 168.74C170.624 163.371 172.436 156.59 176.897 138.655C179.077 129.891 181.09 122.262 181.37 121.701C181.649 121.14 182.312 120.107 182.842 119.406C183.372 118.705 183.924 117.694 184.069 117.16C184.318 116.24 184.303 116.192 183.776 116.267C183.364 116.326 183.129 116.645 182.87 117.494C182.677 118.125 181.967 119.41 181.292 120.35C179.572 122.744 179.487 122.943 178.012 128.074C177.286 130.599 175.77 135.761 174.644 139.547C173.518 143.333 172.107 148.152 171.51 150.255C168.147 162.095 167.377 164.405 166.792 164.405C166.221 164.405 166.148 163.759 166.561 162.364C166.859 161.359 168.727 154.611 169.984 150C170.442 148.318 171.347 145.134 171.993 142.926C174.165 135.505 175.498 130.894 176.141 128.584C177.936 122.132 178.211 121.423 179.668 119.497C180.908 117.857 181.566 116.586 181.278 116.384C181.227 116.348 180.575 116.399 179.831 116.498ZM50.5913 117.844C51.058 119.063 52.0922 124.124 51.9502 124.494C51.6046 125.397 50.9508 124.758 50.2862 122.866C49.682 121.146 48.9845 120.216 48.9845 121.13C48.9845 122.263 52.9953 139.438 54.8334 146.176C55.522 148.7 56.8967 153.92 57.8883 157.777C61.0494 170.07 63.2511 175.899 65.646 178.316C66.8306 179.512 69.2379 181.167 69.4634 180.941C69.5173 180.887 69.1834 179.984 68.7213 178.934C67.5212 176.207 66.2071 171.975 65.278 167.847C62.8035 156.853 61.7261 151.803 60.1931 144.009C59.2393 139.159 58.7306 137.214 56.7862 130.981C55.0128 125.296 54.5018 124.205 53.6694 124.326C53.2073 124.392 53.063 124.142 52.568 122.414C51.5099 118.721 51.117 117.654 50.773 117.539C50.5419 117.462 50.4826 117.561 50.5913 117.844ZM171.151 119.215C170.874 120.161 170.47 121.558 170.254 122.318C169.712 124.227 169.176 125.016 168.693 124.614C168.278 124.27 168.341 123.671 169.122 120.511C169.388 119.436 169.598 118.403 169.588 118.216C169.552 117.501 169.097 118.998 168.606 121.446C168.325 122.848 167.819 124.698 167.482 125.558C165.575 130.414 163.149 139.235 161.074 148.853C158.199 162.182 157.056 167.324 156.202 170.779C155.267 174.556 153.943 178.386 153.04 179.926C152.762 180.399 152.591 180.843 152.659 180.911C152.728 180.98 153.334 180.771 154.006 180.447C156.568 179.213 158.715 176.243 160.447 171.536C161.908 167.566 164.727 157.876 166.898 149.363C167.81 145.787 168.963 141.447 169.462 139.718C169.961 137.989 170.369 136.123 170.369 135.571C170.369 134.733 171.378 129.876 173.025 122.784C173.499 120.743 173.079 120.95 172.359 123.112C171.831 124.699 171.715 124.868 171.349 124.578C170.969 124.277 170.992 123.971 171.635 120.872C172.181 118.236 172.261 117.494 171.995 117.494C171.796 117.494 171.448 118.202 171.151 119.215ZM59.0276 119.725C59.1253 120.531 59.4895 122.024 59.8371 123.043C60.4588 124.865 60.554 126.29 60.0542 126.29C59.9142 126.29 59.4401 125.536 59.0006 124.615C58.5612 123.694 57.8367 122.633 57.3906 122.257C56.5702 121.565 55.6009 121.344 55.6009 121.848C55.6009 121.999 56.1643 123.864 56.8529 125.991C59.2192 133.301 60.1733 136.771 63.2084 149.108C67.3049 165.76 68.5126 169.708 71.1391 175.034C72.7458 178.292 74.265 180.08 76.2466 181.048C77.05 181.44 77.1085 181.438 77.1778 181.025C77.2182 180.782 76.8373 179.439 76.3314 178.04C74.4551 172.851 72.701 164.975 69.232 146.164C68.4551 141.951 67.2365 135.698 66.5239 132.269C65.8114 128.84 65.1663 125.611 65.0907 125.092C64.9887 124.394 64.8179 124.13 64.4309 124.072C63.9861 124.007 63.841 123.639 63.4501 121.58C62.9595 118.996 62.7831 118.372 62.5964 118.559C62.5317 118.624 62.6488 119.568 62.857 120.657C63.313 123.045 63.3476 124.222 62.9544 123.979C62.4719 123.68 61.4668 121.247 61.2937 119.96C61.1219 118.68 60.6461 118.259 59.3722 118.259C58.8861 118.259 58.8625 118.359 59.0276 119.725ZM159.09 120.49C158.864 121.576 158.605 122.897 158.515 123.424C158.338 124.462 157.958 124.884 157.65 124.386C157.521 124.176 157.41 124.27 157.31 124.672C156.92 126.249 155.011 135.887 153.96 141.587C150.024 162.919 147.798 172.847 145.565 179.028C145.071 180.394 144.667 181.561 144.667 181.619C144.667 181.824 145.566 181.395 146.873 180.568C149.925 178.636 152.88 172.769 155.521 163.399C156.017 161.639 157.791 154.692 159.464 147.961C162.379 136.23 163.173 133.372 165.68 125.605C166.299 123.685 166.806 121.993 166.806 121.844C166.806 121.427 165.999 121.524 165.149 122.043C164.639 122.355 164.064 123.166 163.432 124.464C162.909 125.538 162.378 126.417 162.253 126.417C161.754 126.417 161.776 125.59 162.334 123.316C162.656 122.007 162.999 120.391 163.097 119.725L163.275 118.514H162.373C161.597 118.514 161.451 118.611 161.318 119.215C160.736 121.856 159.992 123.613 159.455 123.613C159.346 123.613 159.345 123.011 159.452 122.274C159.559 121.538 159.727 120.391 159.825 119.725C160.122 117.716 159.54 118.322 159.09 120.49ZM68.0722 119.597C68.0744 120.47 68.5549 124.31 69.1969 128.585C69.7896 132.532 74.1266 158.345 74.6956 161.314C76.81 172.344 80.3798 179.574 84.8405 181.861L85.706 182.305L85.5591 181.062C85.4782 180.378 84.8423 178.043 84.1455 175.873C82.3912 170.406 81.5412 165.941 80.0462 154.335C79.6306 151.11 78.7654 144.57 78.1231 139.802C76.4721 127.543 76.2133 125.585 76.2133 125.35C76.2133 125.236 75.9346 125.143 75.5942 125.143C74.8804 125.143 74.8786 125.138 74.179 121.718C73.8943 120.325 73.6054 119.13 73.5375 119.062C73.3125 118.837 73.408 119.464 74.0548 122.462C74.6661 125.294 74.6905 126.098 74.1551 125.766C73.6917 125.479 72.6962 123.203 72.1323 121.142C71.6994 119.559 71.4439 119.034 71.0582 118.933C70.5708 118.805 70.5599 118.879 70.7642 120.888C71.0622 123.817 71.0457 125.718 70.721 125.828C70.3711 125.947 70.009 124.684 69.4453 121.382C69.0705 119.185 68.9254 118.769 68.5348 118.769C68.1798 118.769 68.0706 118.964 68.0722 119.597ZM150.826 119.215C150.705 119.46 150.283 120.677 149.888 121.918C149.285 123.814 148.124 125.887 147.831 125.593C147.786 125.548 148.025 124.252 148.362 122.714C149.018 119.716 149.128 118.772 148.774 119.164C148.654 119.297 148.286 120.75 147.956 122.393C147.39 125.215 147.326 125.372 146.799 125.239C146.403 125.14 146.2 125.234 146.098 125.567C146.019 125.824 145.603 128.788 145.173 132.154C144.261 139.303 141.607 158.391 140.707 164.278C139.779 170.341 139.177 173.037 137.783 177.362C136.393 181.671 136.281 182.325 136.969 182.074C138.487 181.521 139.955 180.214 141.233 178.279C144.163 173.84 146.226 168.272 147.695 160.836C149.186 153.289 153.058 129.235 153.811 122.848C153.968 121.516 154.163 120.053 154.245 119.597C154.373 118.885 154.321 118.769 153.877 118.769C153.312 118.769 153.351 118.647 152.658 122.593C152.164 125.405 151.919 126.162 151.506 126.162C151.208 126.162 151.282 123.867 151.696 120.235C151.838 118.989 151.802 118.769 151.455 118.769C151.23 118.769 150.947 118.97 150.826 119.215ZM78.3578 120.107C78.4303 120.563 78.6059 121.968 78.7479 123.23C80.7221 140.781 84.0962 164.86 85.0761 168.393C86.392 173.138 89.2042 178.981 91.037 180.779C92.1592 181.88 94.0596 182.814 94.4273 182.446C94.5059 182.367 94.0988 180.828 93.5224 179.026C92.946 177.225 92.3116 174.597 92.1126 173.186C91.9134 171.775 91.5881 170.226 91.3899 169.744C90.9227 168.608 90.5842 165.94 89.9529 158.414C88.9253 146.161 88.0787 137.54 87.5244 133.683C87.4239 132.982 87.1122 130.363 86.7279 126.991C86.5956 125.828 86.5022 125.652 86.0149 125.652C85.5115 125.652 85.3695 125.328 84.6209 122.466C84.1626 120.713 83.6844 119.279 83.5582 119.279C83.4322 119.279 83.3882 119.537 83.4607 119.852C84.2117 123.117 84.3494 123.884 84.3527 124.809C84.3547 125.396 84.2471 125.945 84.1132 126.028C83.6882 126.291 83.1401 125.095 82.4227 122.338C82.0397 120.866 81.6328 119.554 81.5188 119.423C81.0313 118.864 81.0356 119.665 81.5346 122.278C82.1448 125.474 82.1797 126.062 81.7731 126.314C81.3008 126.606 80.8648 125.749 80.4226 123.657C79.4596 119.104 79.5225 119.279 78.8484 119.279C78.2888 119.279 78.2394 119.362 78.3578 120.107ZM106.941 119.471C95.9908 119.509 87.6647 119.634 87.6647 119.762C87.6647 120.387 89.0062 125.044 89.4215 125.861C90.6613 128.3 90.9308 130.63 92.1106 149.108C92.3208 152.403 92.5506 155.731 92.6213 156.502C92.6918 157.273 92.9333 160.027 93.158 162.621C93.6087 167.822 94.2446 170.758 95.6269 174.018C97.5039 178.444 99.3094 180.925 101.447 182.018C101.973 182.287 102.464 182.507 102.538 182.507C102.611 182.507 102.432 181.905 102.139 181.168C100.948 178.178 100.6 175.608 100.469 168.867C100.366 163.569 100.435 161.634 100.876 157.402C101.168 154.602 101.404 151.389 101.401 150.263C101.396 147.947 100.864 143.581 100.225 140.608C99.8067 138.66 99.7624 138.584 98.4536 137.616C96.1549 135.915 94.9673 133.883 94.5683 130.97C94.166 128.033 95.2406 122.66 96.3491 122.066C97.6362 121.376 100.84 122.854 103.504 125.367C106.662 128.347 107.921 132.165 106.902 135.677C106.454 137.222 105.261 138.812 104.265 139.191L103.657 139.422L103.837 143.564C103.935 145.842 104.04 147.735 104.069 147.77C104.098 147.806 104.554 146.993 105.082 145.965C105.61 144.936 106.767 143.078 107.652 141.836C108.909 140.073 109.209 139.481 109.024 139.133C108.428 138.019 108.916 136.033 109.986 135.213C110.189 135.058 110.359 134.211 110.422 133.046C110.795 126.107 117.068 121.057 125.304 121.066C128.654 121.07 131.059 121.837 132.175 123.26C132.467 123.632 132.718 124.179 132.731 124.476C132.744 124.772 133.15 123.825 133.632 122.37C134.115 120.915 134.475 119.691 134.433 119.649C134.255 119.47 124.988 119.41 106.941 119.471ZM140.47 119.597C140.41 119.773 140.118 120.887 139.823 122.074C139.129 124.856 138.681 125.907 138.191 125.907C137.657 125.907 137.682 125.003 138.295 122.069C138.745 119.914 138.785 119.223 138.44 119.568C138.374 119.635 137.985 121.059 137.575 122.734C136.85 125.703 136.814 125.778 136.169 125.706C135.566 125.64 135.506 125.715 135.506 126.532C135.506 127.026 135.223 129.641 134.878 132.342C133.888 140.089 133.08 148.054 132.073 159.984C131.578 165.847 131.295 168.033 130.824 169.632C130.617 170.333 130.324 171.819 130.173 172.934C129.899 174.957 128.714 179.43 127.996 181.151C127.365 182.664 127.451 182.788 128.817 182.321C130.734 181.667 132.152 180.025 133.845 176.498C136.89 170.156 137.264 168.836 138.79 159.051C140.824 146.002 142.455 133.336 143.493 122.518C143.802 119.3 143.799 119.257 143.291 119.331C142.743 119.411 142.745 119.403 141.99 123.344C141.511 125.846 141.244 126.455 140.719 126.253C140.229 126.065 140.245 125.349 140.814 122.019C141.203 119.745 141.222 119.279 140.931 119.279C140.738 119.279 140.53 119.422 140.47 119.597ZM184.055 121.254C183.842 121.5 183.551 121.93 183.41 122.211C183.103 122.818 180.758 130.939 180.207 133.301C179.995 134.212 179.412 136.546 178.912 138.487C178.412 140.428 178.013 142.321 178.025 142.694L178.047 143.372L178.248 142.734C178.359 142.384 179.84 137.485 181.538 131.847C183.237 126.21 184.694 121.42 184.777 121.203C184.981 120.671 184.536 120.703 184.055 121.254ZM121.51 124.743C116.567 126.123 112.473 131.356 114.008 134.331L114.448 135.183L114.961 134.433C116.152 132.692 121.013 128.266 123.623 126.545C125.111 125.563 126.333 124.674 126.337 124.569C126.35 124.263 122.765 124.392 121.51 124.743ZM98.2686 125.844C97.9335 126.406 97.5533 129.21 97.6833 130.161C97.9971 132.454 99.6247 134.682 101.589 135.507C102.797 136.014 103.13 135.937 103.59 135.046C104.167 133.928 103.988 131.471 103.22 129.979C102.038 127.681 98.7905 124.968 98.2686 125.844ZM125.451 128.37C121.841 130.781 116.507 135.749 116.757 136.468C116.813 136.629 117.527 136.734 118.481 136.721C121.682 136.678 124.853 134.251 126.71 130.421C127.801 128.173 128.067 127.182 127.578 127.182C127.387 127.182 126.43 127.717 125.451 128.37ZM130.96 129.436C130.941 129.623 130.408 130.857 129.776 132.176C128.313 135.231 126.075 137.706 123.732 138.862C121.895 139.768 119.535 140.44 118.189 140.44C117.455 140.44 117.207 140.568 116.981 141.065C116.605 141.892 115.285 142.55 114.012 142.545C112.573 142.54 111.897 142.959 109.96 145.054C108.777 146.335 107.89 147.642 107.015 149.392C105.715 151.993 104.768 154.601 105.028 154.861C105.111 154.944 106.094 154.483 107.213 153.836C109.183 152.698 109.258 152.619 109.551 151.394C109.718 150.698 110.281 149.467 110.803 148.658C112.996 145.26 116.177 143.769 121.262 143.758C124.403 143.752 124.563 143.907 124.563 146.929C124.563 152.8 122.019 156.348 117.145 157.274C115.687 157.551 112.722 157.06 111.666 156.367C111.095 155.993 110.962 156.007 109.717 156.578C107.967 157.381 106.626 158.582 105.45 160.402C104.531 161.824 104.004 163.269 104.297 163.562C104.374 163.639 104.814 163.325 105.274 162.864C107.554 160.579 111.873 159.701 115.265 160.833C117.158 161.464 119.633 163.022 120.633 164.213C122.291 166.187 121.998 167.244 119.308 169.004C116.778 170.658 114.807 171.307 111.806 171.473C109.17 171.619 107.329 171.32 105.644 170.472C105.106 170.201 104.6 170.044 104.521 170.123C104.441 170.203 104.324 171.452 104.26 172.9C104.099 176.515 104.698 178.582 106.478 180.554C107.287 181.45 108.302 181.997 109.155 181.997H109.804V178.977C109.804 176.375 109.868 175.899 110.269 175.535C110.888 174.975 111.475 175.003 112.094 175.623C112.547 176.077 112.603 176.473 112.603 179.21C112.603 182.664 112.486 182.525 114.578 181.556C116.31 180.754 118.035 177.766 118.478 174.803C118.84 172.378 119.18 171.693 120.07 171.589C121.269 171.45 121.51 171.888 121.51 174.204C121.51 176.399 120.901 179.243 120.003 181.248C119.724 181.87 119.6 182.416 119.728 182.461C120.224 182.634 121.825 181.624 122.784 180.532C123.919 179.24 126.466 174.381 127.444 171.64C128.503 168.671 128.82 166.307 129.524 156.119C129.945 150.017 130.099 147.825 130.287 145.284C130.704 139.61 131.2 130.169 131.106 129.677C131.045 129.357 130.979 129.248 130.96 129.436ZM118.415 147.161C117.622 147.335 116.42 147.819 115.743 148.236C113.443 149.655 112.043 152.733 113.374 153.446C114.223 153.901 116.217 154.028 117.42 153.703C119.424 153.161 121.035 150.765 121.096 148.234C121.126 147.028 121.085 146.938 120.492 146.893C120.142 146.867 119.207 146.988 118.415 147.161ZM109.809 163.617C108.495 164.083 106.241 166.003 106.241 166.656C106.241 167.415 110.27 168.368 112.317 168.094C113.843 167.889 116.56 167.042 117.349 166.524L117.968 166.118L117.394 165.505C116.559 164.615 113.947 163.423 112.476 163.262C111.572 163.162 110.8 163.265 109.809 163.617ZM53.8195 185.959V187.564L55.0962 187.838C57.4672 188.347 65.1111 189.36 70.4876 189.876C85.8116 191.349 96.8517 191.773 115.784 191.616C128.323 191.513 131.96 191.393 139.959 190.822C152.168 189.951 162.544 188.805 167.124 187.823L168.333 187.564V186.055C168.333 184.357 168.254 184.312 166.127 184.804C162.584 185.624 145.5 187.383 136.524 187.853C133.795 187.996 130.703 188.17 129.653 188.24C125.983 188.486 101.232 188.572 95.9351 188.358C84.7087 187.904 79.523 187.554 69.4697 186.572C65.4315 186.178 57.3712 185.1 55.4586 184.698L53.8195 184.354V185.959ZM53.1065 193.078C52.9495 193.424 52.9075 193.76 53.0136 193.826C53.1197 193.892 54.5183 194.183 56.1215 194.472C57.7247 194.762 60.6395 195.288 62.5989 195.642C64.5584 195.995 67.9859 196.57 70.2156 196.921C72.4453 197.27 74.3348 197.626 74.4144 197.712C74.5786 197.888 69.7107 197.658 65.1437 197.274C63.4641 197.132 59.9305 196.679 57.2911 196.265C54.6517 195.852 52.3899 195.577 52.2652 195.654C51.9242 195.865 51.9922 196.787 52.3563 196.891C53.2256 197.141 61.5021 198.357 64.6347 198.696C66.5942 198.908 68.5027 199.146 68.8758 199.224C69.5379 199.362 69.9688 199.896 69.6641 200.201C69.441 200.425 67.4133 200.387 64.581 200.107C63.2109 199.972 60.086 199.683 57.6367 199.466C55.1873 199.249 52.7541 199.006 52.2291 198.925C51.4657 198.808 51.2748 198.86 51.2748 199.184C51.2748 199.407 51.3692 199.589 51.4845 199.589C51.5998 199.589 52.8307 199.757 54.2201 199.963C56.7521 200.339 72.1707 201.879 78.3763 202.376C86.4126 203.02 95.3864 203.258 111.458 203.253C132.89 203.245 138.499 202.99 156.214 201.219C168.477 199.993 170.944 199.657 170.799 199.234C170.683 198.894 169.63 198.945 162.989 199.612C160.26 199.886 156.796 200.182 155.291 200.271C152.891 200.412 152.556 200.382 152.556 200.025C152.556 199.802 152.656 199.557 152.778 199.481C152.9 199.405 155.964 198.938 159.585 198.443C165.494 197.635 167.697 197.292 169.558 196.893C169.994 196.799 170.127 196.619 170.067 196.202C169.964 195.477 169.636 195.486 164.261 196.348C159.953 197.04 151.493 197.829 148.996 197.772L147.593 197.74L148.739 197.527C149.368 197.409 150.284 197.25 150.774 197.173C154.677 196.56 169.162 193.962 169.297 193.851C169.487 193.695 168.721 192.45 168.435 192.45C168.256 192.45 167.387 192.616 166.504 192.82C158.926 194.562 132.187 196.181 111.076 196.174C104.347 196.172 86.587 195.751 82.7024 195.502C72.0542 194.818 58.8495 193.517 55.5955 192.832C53.3119 192.35 53.4437 192.337 53.1065 193.078ZM17.6842 201.836C18.3595 202.256 26.733 202.995 35.5091 203.409C41.1101 203.674 47.1187 203.754 46.9266 203.561C46.7474 203.382 37.8144 202.676 30.4079 202.256C19.682 201.649 17.2549 201.569 17.6842 201.836ZM191.109 202.293C186.07 202.622 180.287 203.06 178.258 203.267L174.568 203.644L181.184 203.538C190.908 203.381 204.057 202.38 204.687 201.75C204.924 201.512 200.141 201.704 191.109 202.293Z" fill="#E9961B"/>
</svg>
