<svg width="87" height="60" viewBox="0 0 87 60" fill="none" xmlns="http://www.w3.org/2000/svg">
<path fill-rule="evenodd" clip-rule="evenodd" d="M61.5801 0.610317C56.7849 1.91794 52.5101 4.74975 51.2025 7.48456C50.6787 8.58047 50.5713 8.66316 49.3109 8.94108C44.3738 10.0292 40.7491 13.8704 39.2324 19.6218C38.781 21.3332 38.4311 28.6005 38.7249 30.1635L38.8901 31.0426L39.5091 29.8793C41.0203 27.039 43.8218 24.1485 46.5276 22.6381C48.3269 21.6337 51.057 20.699 52.9066 20.4541C54.1265 20.2926 54.134 20.2863 54.7511 18.8656C55.092 18.0811 55.4391 17.4392 55.5227 17.4392C55.6061 17.4392 56.3473 18.0229 57.1695 18.7364C57.9919 19.4498 59.0473 20.1616 59.515 20.3183C61.8595 21.1028 64.5575 23.8791 66.1374 27.1331C66.8272 28.5535 67.0849 28.8399 68.2108 29.4375C70.2523 30.521 70.3847 31.2694 69.0519 34.189C68.3665 35.6904 68.263 35.7915 66.2961 36.8847C63.9865 38.1684 60.7006 40.7167 59.4017 42.2316C58.4744 43.3128 57.8143 45.102 57.8143 46.5336C57.8143 49.5128 60.6364 55.2865 63.8626 58.9087L64.8347 60L64.5514 59.03C64.3957 58.4964 64.2674 56.5321 64.2667 54.6647C64.2654 51.8705 64.3614 50.9337 64.8097 49.3724C66.0636 45.0036 68.2176 42.3231 70.969 41.7081C71.5509 41.5781 73.2297 41.3559 74.6996 41.2143C77.9613 40.9005 79.7625 40.4492 81.989 39.388C85.0138 37.9465 86.9523 35.5226 86.9635 33.1687C86.971 31.5779 86.4917 31.1147 84.2538 30.5496C77.764 28.9112 70.9338 23.9572 70.9338 20.8882C70.9338 19.8139 69.9025 17.6679 68.7948 16.4378C68.1673 15.7409 66.67 14.3641 65.4673 13.3786C64.1935 12.3345 63.0526 11.1722 62.7341 10.5945C61.7215 8.75702 62.125 5.75545 63.8923 1.97905C64.9982 -0.384467 65.0704 -0.341784 61.5801 0.610317ZM9.78751 24.2533C5.81544 24.9153 1.44857 27.7651 0.337058 30.4204C-0.36338 32.0937 0.0734531 34.9027 1.22579 36.1339C2.09411 37.0618 2.67234 36.8285 3.16019 35.3528C3.89975 33.1159 6.58706 30.2921 9.26515 28.9374C10.6738 28.2249 13.0766 27.6332 14.5815 27.6283C17.6507 27.6184 20.1843 30.3871 20.2362 33.8087C20.3065 38.4189 16.1381 42.5937 10.9853 43.0739C10.15 43.1517 9.46632 43.127 9.46632 43.0186C9.46632 42.3366 13.772 35.0569 15.2375 33.2609C16.0771 32.2319 16.2783 31.8167 16.1617 31.3531C15.978 30.6224 14.9765 30.2074 13.8893 30.4109C11.0674 30.9393 3.95927 42.278 2.02948 49.3295C1.61524 50.843 1.60212 53.0188 2.00251 53.8087C2.45004 54.6914 3.85115 55.5497 4.70587 55.4643C5.40363 55.3947 5.4374 55.3326 5.73405 53.5717C6.07151 51.5688 7.13371 48.1504 8.08221 46.0156L8.69251 44.6417L9.74742 45.0074C10.5018 45.2691 11.4952 45.3477 13.2321 45.2837C15.3509 45.2056 15.873 45.095 17.3142 44.4191C21.4275 42.4902 24.5132 37.4304 24.2331 33.0734C23.951 28.6883 20.684 25.048 16.2967 24.2307C14.7608 23.9448 11.5735 23.9557 9.78751 24.2533ZM43.5725 31.2357C42.9202 31.7547 42.0288 32.6245 41.5912 33.169L40.7958 34.1587L38.842 33.1619C36.9933 32.2188 36.8366 32.1807 35.9314 32.4514C35.4051 32.6088 34.8016 33.0009 34.5903 33.323C34.2023 33.9142 34.2931 34.415 34.7883 34.415C35.0732 34.415 38.6209 36.5607 38.6209 36.7332C38.6209 36.7887 38.0817 37.7728 37.4229 38.9199C36.764 40.067 36.0266 41.5558 35.7841 42.2282C35.2873 43.6079 33.8978 44.9842 32.1493 45.8293C30.6435 46.5568 28.0902 46.4264 27.4095 45.587C26.8325 44.8757 26.6204 44.0444 26.8164 43.2645C26.9581 42.7009 27.0093 42.6813 27.5108 42.9982C28.9445 43.904 31.4795 43.6355 33.3847 42.3759C35.4581 41.005 36.1303 38.4397 34.772 37.0836C32.6867 35.0021 28.2564 35.8861 25.5431 38.9248C22.7887 42.0095 21.6928 45.6947 22.8036 48.1361C24.3288 51.4881 29.0475 51.4005 33.3026 47.9409L34.6495 46.8459L34.9374 47.9195C35.2907 49.2383 36.0742 50.0558 37.3143 50.3994C38.615 50.7601 39.6955 50.7283 40.7234 50.2995C41.2032 50.0995 41.6233 49.9358 41.6571 49.9358C41.6908 49.9358 41.7878 50.2813 41.8723 50.7035C42.1029 51.8535 43.1695 53.0857 44.4071 53.6324C46.408 54.5158 49.7377 53.7272 51.1714 52.0303C52.5869 50.3548 52.7771 48.7843 51.9834 45.328C51.1359 41.6385 51.4559 39.8043 53.064 39.1336C53.6918 38.8719 53.9046 38.6114 54.0281 37.9547C54.2322 36.869 53.9885 35.92 53.4292 35.6213C52.7771 35.2728 50.8417 35.3344 50.0883 35.7272C48.6748 36.4642 47.3672 38.4417 47.3672 39.8419C47.3672 40.4916 46.0473 42.3075 44.1153 44.316C42.7426 45.743 41.8619 46.2981 40.9707 46.2981C39.4209 46.2981 39.5383 44.4693 41.3106 40.9987L42.5055 38.659L44.0424 38.627C45.6959 38.5928 46.6699 38.212 47.573 37.2471C48.2606 36.5122 48.3787 35.078 47.7992 34.4996C47.4367 34.1378 47.3541 34.1475 46.7462 34.6248C46.3838 34.9095 45.8184 35.1425 45.4902 35.1425C44.9221 35.1425 44.9532 35.0664 46.1303 33.5713C46.8106 32.7072 47.3672 31.8839 47.3672 31.7416C47.3672 31.5992 47.0988 31.2151 46.7708 30.8877C45.8964 30.0146 44.9819 30.1143 43.5725 31.2357ZM29.693 39.0062C28.6303 39.7745 27.445 41.1842 27.445 41.6797C27.445 42.1084 28.9695 41.8165 30.3529 41.1226C31.6486 40.4727 32.5198 39.2104 32.0567 38.6539C31.598 38.1019 30.7734 38.2249 29.693 39.0062ZM46.3388 44.1143C45.1908 45.7869 45.1891 45.792 45.4297 47.0576C45.7273 48.6238 46.2251 49.2082 47.2618 49.2082C48.1675 49.2082 49.3092 48.0847 49.3135 47.1888C49.3162 46.6214 47.8114 42.4174 47.6102 42.4305C47.5434 42.4349 46.9712 43.1925 46.3388 44.1143ZM12.1388 55.5135C12.1388 56.6992 12.1551 56.7261 12.8677 56.7261C13.2686 56.7261 13.5965 56.6291 13.5965 56.5105C13.5965 56.3919 13.4053 56.3102 13.1714 56.3286C12.8383 56.355 12.7299 56.1392 12.6716 55.3316C12.5671 53.8923 12.1388 54.0386 12.1388 55.5135ZM16.0747 54.592C15.9143 54.752 15.7831 55.1667 15.7831 55.5135C15.7831 55.8603 15.9143 56.275 16.0747 56.4351C16.7618 57.1209 18.2127 56.4955 18.2127 55.5135C18.2127 54.5316 16.7618 53.9062 16.0747 54.592ZM20.6881 55.5135C20.9658 56.1804 21.2732 56.7261 21.3711 56.7261C21.469 56.7261 21.7763 56.1804 22.054 55.5135C22.3327 54.8444 22.4467 54.301 22.3084 54.301C22.1704 54.301 21.934 54.6284 21.7827 55.0285C21.6313 55.4287 21.4462 55.756 21.3711 55.756C21.296 55.756 21.1109 55.4287 20.9595 55.0285C20.8082 54.6284 20.5718 54.301 20.4338 54.301C20.2955 54.301 20.4095 54.8444 20.6881 55.5135ZM24.7725 55.5135V56.7261H25.6228C26.0905 56.7261 26.4731 56.6356 26.4731 56.525C26.4731 56.4142 26.2382 56.3325 25.951 56.3432C25.6639 56.3536 25.3815 56.226 25.3235 56.0592C25.261 55.88 25.4248 55.756 25.7241 55.756C26.0025 55.756 26.2302 55.6469 26.2302 55.5135C26.2302 55.3801 26.0115 55.271 25.7443 55.271C25.477 55.271 25.2584 55.1619 25.2584 55.0285C25.2584 54.8951 25.5317 54.786 25.8658 54.786C26.1998 54.786 26.4731 54.6769 26.4731 54.5435C26.4731 54.4101 26.0905 54.301 25.6228 54.301H24.7725V55.5135ZM28.9027 55.5135C28.9027 56.1804 29.012 56.7261 29.1456 56.7261C29.2793 56.7261 29.3886 56.5624 29.3886 56.3623C29.3886 56.1623 29.5013 55.9986 29.6391 55.9986C29.7771 55.9986 29.9527 56.1623 30.0295 56.3623C30.1065 56.5624 30.3351 56.7261 30.5375 56.7261C30.8283 56.7261 30.8456 56.6536 30.6192 56.3812C30.3983 56.1157 30.402 55.9253 30.6354 55.5523C31.0443 54.8988 30.5506 54.301 29.6019 54.301C28.9248 54.301 28.9027 54.3393 28.9027 55.5135ZM33.4379 54.4627C33.0567 54.8432 33.3062 55.5118 33.8833 55.6564C34.2173 55.74 34.4906 55.8877 34.4906 55.9845C34.4906 56.3509 34.1677 56.4581 33.7445 56.2319C33.461 56.0803 33.2535 56.0808 33.1592 56.2333C32.978 56.5258 34.1073 56.8318 34.6296 56.6318C35.1597 56.4285 34.9656 55.6845 34.307 55.3954C33.625 55.0959 33.6022 54.786 34.262 54.786C34.537 54.786 34.6947 54.6769 34.6121 54.5435C34.4425 54.2694 33.6838 54.2173 33.4379 54.4627ZM16.5492 54.8459C16.1379 55.2565 16.2078 56.1656 16.6643 56.3405C17.1614 56.5309 17.7268 56.0796 17.7268 55.4924C17.7268 54.9041 16.9294 54.4664 16.5492 54.8459ZM29.3886 55.1498C29.3886 55.3518 29.6046 55.5135 29.8745 55.5135C30.1444 55.5135 30.3604 55.3518 30.3604 55.1498C30.3604 54.9478 30.1444 54.786 29.8745 54.786C29.6046 54.786 29.3886 54.9478 29.3886 55.1498Z" fill="#112267"/>
</svg>
