<svg width="215" height="65" viewBox="0 0 215 65" fill="none" xmlns="http://www.w3.org/2000/svg">
<g clip-path="url(#clip0_2_342)">
<path d="M210.679 12.517C199.303 -7.02689 168.816 -3.07418 163.811 19.1049C163.129 22.3988 168.134 23.7164 168.816 20.4224C172.002 7.24676 189.065 -0.439048 200.668 9.44271C210.224 17.5677 209.996 32.061 204.081 42.1623C192.25 62.365 157.441 65.4393 139.695 50.9461C140.377 50.2873 140.832 49.4089 141.287 48.7501C144.928 43.2603 147.203 30.0846 136.737 29.6454C128.092 29.4258 126.727 41.2839 129.912 46.5542C130.594 47.8718 131.504 49.1893 132.642 50.2873C127.637 54.8988 120.811 57.3143 113.758 57.3143C104.203 57.3143 96.6948 52.9224 91.6895 46.5542C101.7 30.963 102.61 17.3481 96.6948 12.7366C93.5096 10.1015 87.8218 10.1015 84.4091 12.517C77.8112 16.6893 77.1286 30.3042 85.5466 45.6758C83.954 47.8718 80.7689 51.8245 75.081 54.24C72.8059 55.1184 65.753 58.1927 58.2451 55.1184C53.6948 53.142 51.1921 49.6285 50.0546 47.8718C51.6472 46.115 53.0122 44.1387 53.9223 41.9427C56.88 35.7941 57.335 22.1792 48.462 19.7637C39.589 17.5677 33.4461 28.5474 34.3562 35.5745C35.0387 40.6251 37.3138 45.2366 40.7265 48.9697C29.8059 57.0947 12.9699 55.1184 3.18685 45.4562C1.36675 43.6995 -1.1359 46.3346 0.456694 48.0914C11.6048 59.5103 31.3985 61.7062 44.5943 52.9224C54.3773 61.267 69.1657 64.3414 80.3138 57.7535C82.8165 56.2164 85.5466 53.8008 88.2768 50.9461C100.107 65.0001 123.086 66.9765 136.51 54.4596C149.25 65.2197 171.092 67.4157 185.88 62.8042C207.494 56.436 222.737 33.3785 210.679 12.517ZM44.1392 26.5711C44.3667 26.3515 45.9593 25.0339 47.7794 25.4731C50.9646 26.1319 51.6472 31.1826 51.8747 31.8414C52.5572 36.2332 50.5096 39.7468 49.5995 41.2839C48.6895 43.0407 47.5519 44.1387 46.6419 45.017C45.7318 43.9191 44.8218 42.1623 43.9117 39.9664C43.0017 37.7704 42.0916 35.5745 42.0916 32.7197C41.8641 31.4022 42.0916 28.3278 44.1392 26.5711ZM83.499 24.1555C83.499 18.4461 85.3191 16.9089 86.2292 16.2501C87.5943 15.3718 89.6419 14.9326 91.2345 15.811C93.5096 16.9089 93.9646 19.5441 94.1921 21.0812C95.7847 28.767 90.0969 38.6488 88.0493 41.7231C83.954 33.8177 83.499 27.4495 83.499 24.1555ZM138.785 37.1116C139.012 38.8684 138.785 42.3819 135.6 46.9934C134.689 45.6758 132.869 43.0407 132.869 39.5272C132.869 38.4292 132.869 36.2332 134.462 34.6961C134.689 34.4765 136.282 32.9393 137.42 33.3785C138.557 34.0373 138.785 36.0137 138.785 37.1116Z" fill="#E9961B"/>
</g>
<defs>
<clipPath id="clip0_2_342">
<rect width="215" height="65" fill="white"/>
</clipPath>
</defs>
</svg>
