<svg width="31" height="30" viewBox="0 0 31 30" fill="none" xmlns="http://www.w3.org/2000/svg">
<g clip-path="url(#clip0_83_6)">
<path fill-rule="evenodd" clip-rule="evenodd" d="M13.757 0.065398C8.80844 0.532449 4.36442 3.40272 1.91286 7.71522C1.00942 9.3044 0.396175 11.1512 0.107113 13.1534C0.00762943 13.8427 0.00762943 16.1555 0.107113 16.8448C0.608633 20.3183 2.05287 23.2194 4.46426 25.5968C6.82406 27.9235 9.70843 29.3425 13.133 29.8616C14.0904 30.0067 16.3356 30.0067 17.293 29.8616C19.2305 29.5679 20.9409 29.0105 22.4931 28.167C25.872 26.3306 28.4255 23.3279 29.6297 19.775C30.0298 18.5944 30.3674 16.9485 30.3674 16.1781C30.3674 16.013 30.3941 15.878 30.4268 15.878C30.464 15.878 30.4859 15.5221 30.4853 14.9258C30.4847 14.2894 30.4653 14.0028 30.4268 14.0616C30.3857 14.1243 30.3689 14.0595 30.3683 13.8347C30.366 13.0395 30.0568 11.5098 29.6562 10.3116C28.5627 7.04087 26.4268 4.31397 23.4557 2.39532C20.6754 0.599773 17.127 -0.252649 13.757 0.065398ZM14.422 7.50751C13.4085 7.58673 12.474 7.97889 11.8411 8.59044C10.947 9.45458 10.8342 10.5641 11.5933 11.0286C12.1932 11.3957 12.6718 11.2911 13.1013 10.6991C13.6169 9.98843 13.9817 9.78018 14.7864 9.737C16.0422 9.66968 16.8191 10.2321 16.744 11.1541C16.6914 11.8001 16.4434 12.1354 15.411 12.9562C14.3631 13.7894 14.017 14.258 13.7829 15.1606C13.6238 15.7738 13.624 16.8025 13.7833 17.1485C13.9437 17.4967 14.174 17.6024 14.7673 17.6002C15.6471 17.5968 15.9256 17.3443 15.9259 16.5495C15.9264 15.5248 16.1886 15.039 17.1757 14.2335C18.4383 13.2032 19.0981 12.217 19.2551 11.1256C19.3617 10.3846 19.1595 9.60932 18.7045 9.01442C17.8539 7.90214 16.3125 7.35979 14.422 7.50751ZM0.0234375 14.9991C0.0234375 15.5308 0.0324707 15.7484 0.043465 15.4825C0.0544593 15.2166 0.0544593 14.7815 0.043465 14.5157C0.0324707 14.2498 0.0234375 14.4673 0.0234375 14.9991ZM14.2919 19.0516C13.0054 19.5215 12.8967 21.2404 14.1136 21.8708C14.4473 22.0436 15.0889 22.0423 15.4286 21.8681C15.7449 21.7059 16.1237 21.2803 16.2129 20.9869C16.5158 19.99 15.8593 19.0502 14.8267 19.0029C14.6306 18.9939 14.3899 19.0158 14.2919 19.0516Z" fill="#112267"/>
</g>
<defs>
<clipPath id="clip0_83_6">
<rect width="30.4276" height="30" fill="white"/>
</clipPath>
</defs>
</svg>
