<svg width="20" height="20" viewBox="0 0 20 20" fill="none" xmlns="http://www.w3.org/2000/svg">
<path fill-rule="evenodd" clip-rule="evenodd" d="M9.16669 3.33341C5.94503 3.33341 3.33335 5.94509 3.33335 9.16675C3.33335 12.3884 5.94503 15.0001 9.16669 15.0001C10.7384 15.0001 12.1649 14.3785 13.2138 13.3678C13.2357 13.3393 13.2597 13.3119 13.2858 13.2858C13.3119 13.2597 13.3393 13.2357 13.3677 13.2138C14.3785 12.1649 15 10.7384 15 9.16675C15 5.94509 12.3883 3.33341 9.16669 3.33341ZM15.0266 13.8482C16.053 12.5651 16.6667 10.9376 16.6667 9.16675C16.6667 5.02461 13.3088 1.66675 9.16669 1.66675C5.02455 1.66675 1.66669 5.02461 1.66669 9.16675C1.66669 13.3089 5.02455 16.6667 9.16669 16.6667C10.9375 16.6667 12.565 16.053 13.8481 15.0267L16.9108 18.0894C17.2362 18.4148 17.7639 18.4148 18.0893 18.0894C18.4147 17.7639 18.4147 17.2363 18.0893 16.9108L15.0266 13.8482Z" fill="#112267"/>
</svg>
