<svg width="120" height="20" viewBox="0 0 120 20" fill="none" xmlns="http://www.w3.org/2000/svg">
<path d="M9.04894 2.92705C9.3483 2.00574 10.6517 2.00574 10.9511 2.92705L12.0206 6.21885C12.1545 6.63087 12.5385 6.90983 12.9717 6.90983H16.4329C17.4016 6.90983 17.8044 8.14945 17.0207 8.71885L14.2205 10.7533C13.87 11.0079 13.7234 11.4593 13.8572 11.8713L14.9268 15.1631C15.2261 16.0844 14.1717 16.8506 13.388 16.2812L10.5878 14.2467C10.2373 13.9921 9.7627 13.9921 9.41221 14.2467L6.61204 16.2812C5.82833 16.8506 4.77385 16.0844 5.0732 15.1631L6.14277 11.8713C6.27665 11.4593 6.12999 11.0079 5.7795 10.7533L2.97933 8.71885C2.19562 8.14945 2.59839 6.90983 3.56712 6.90983H7.02832C7.46154 6.90983 7.8455 6.63087 7.97937 6.21885L9.04894 2.92705Z" fill="#E9961B"/>
<path d="M34.0489 2.92705C34.3483 2.00574 35.6517 2.00574 35.9511 2.92705L37.0206 6.21885C37.1545 6.63087 37.5385 6.90983 37.9717 6.90983H41.4329C42.4016 6.90983 42.8044 8.14945 42.0207 8.71885L39.2205 10.7533C38.87 11.0079 38.7234 11.4593 38.8572 11.8713L39.9268 15.1631C40.2261 16.0844 39.1717 16.8506 38.388 16.2812L35.5878 14.2467C35.2373 13.9921 34.7627 13.9921 34.4122 14.2467L31.612 16.2812C30.8283 16.8506 29.7739 16.0844 30.0732 15.1631L31.1428 11.8713C31.2766 11.4593 31.13 11.0079 30.7795 10.7533L27.9793 8.71885C27.1956 8.14945 27.5984 6.90983 28.5671 6.90983H32.0283C32.4615 6.90983 32.8455 6.63087 32.9794 6.21885L34.0489 2.92705Z" fill="#E9961B"/>
<path d="M59.0489 2.92705C59.3483 2.00574 60.6517 2.00574 60.9511 2.92705L62.0206 6.21885C62.1545 6.63087 62.5385 6.90983 62.9717 6.90983H66.4329C67.4016 6.90983 67.8044 8.14945 67.0207 8.71885L64.2205 10.7533C63.87 11.0079 63.7234 11.4593 63.8572 11.8713L64.9268 15.1631C65.2261 16.0844 64.1717 16.8506 63.388 16.2812L60.5878 14.2467C60.2373 13.9921 59.7627 13.9921 59.4122 14.2467L56.612 16.2812C55.8283 16.8506 54.7739 16.0844 55.0732 15.1631L56.1428 11.8713C56.2766 11.4593 56.13 11.0079 55.7795 10.7533L52.9793 8.71885C52.1956 8.14945 52.5984 6.90983 53.5671 6.90983H57.0283C57.4615 6.90983 57.8455 6.63087 57.9794 6.21885L59.0489 2.92705Z" fill="#E9961B"/>
<path d="M84.0489 2.92705C84.3483 2.00574 85.6517 2.00574 85.9511 2.92705L87.0206 6.21885C87.1545 6.63087 87.5385 6.90983 87.9717 6.90983H91.4329C92.4016 6.90983 92.8044 8.14945 92.0207 8.71885L89.2205 10.7533C88.87 11.0079 88.7234 11.4593 88.8572 11.8713L89.9268 15.1631C90.2261 16.0844 89.1717 16.8506 88.388 16.2812L85.5878 14.2467C85.2373 13.9921 84.7627 13.9921 84.4122 14.2467L81.612 16.2812C80.8283 16.8506 79.7739 16.0844 80.0732 15.1631L81.1428 11.8713C81.2766 11.4593 81.13 11.0079 80.7795 10.7533L77.9793 8.71885C77.1956 8.14945 77.5984 6.90983 78.5671 6.90983H82.0283C82.4615 6.90983 82.8455 6.63087 82.9794 6.21885L84.0489 2.92705Z" fill="#E9961B"/>
<path d="M109.049 2.92705C109.348 2.00574 110.652 2.00574 110.951 2.92705L112.021 6.21885C112.155 6.63087 112.538 6.90983 112.972 6.90983H116.433C117.402 6.90983 117.804 8.14945 117.021 8.71885L114.22 10.7533C113.87 11.0079 113.723 11.4593 113.857 11.8713L114.927 15.1631C115.226 16.0844 114.172 16.8506 113.388 16.2812L110.588 14.2467C110.237 13.9921 109.763 13.9921 109.412 14.2467L106.612 16.2812C105.828 16.8506 104.774 16.0844 105.073 15.1631L106.143 11.8713C106.277 11.4593 106.13 11.0079 105.78 10.7533L102.979 8.71885C102.196 8.14945 102.598 6.90983 103.567 6.90983H107.028C107.462 6.90983 107.845 6.63087 107.979 6.21885L109.049 2.92705Z" fill="#E9961B"/>
</svg>
