<svg width="24" height="24" viewBox="0 0 24 24" fill="none" xmlns="http://www.w3.org/2000/svg">
<g clip-path="url(#clip0_2_411)">
<path d="M0.879999 9.90999L4.75 5.99999C4.84296 5.90626 4.95357 5.83187 5.07542 5.7811C5.19728 5.73033 5.32799 5.70419 5.46 5.70419C5.59201 5.70419 5.72272 5.73033 5.84458 5.7811C5.96643 5.83187 6.07704 5.90626 6.17 5.99999C6.35625 6.18735 6.46079 6.44081 6.46079 6.70499C6.46079 6.96918 6.35625 7.22263 6.17 7.40999L2.61 11H23C23.2652 11 23.5196 11.1053 23.7071 11.2929C23.8946 11.4804 24 11.7348 24 12V12C24 12.2652 23.8946 12.5196 23.7071 12.7071C23.5196 12.8946 23.2652 13 23 13H2.55L6.17 16.61C6.26373 16.703 6.33812 16.8136 6.38889 16.9354C6.43966 17.0573 6.4658 17.188 6.4658 17.32C6.4658 17.452 6.43966 17.5827 6.38889 17.7046C6.33812 17.8264 6.26373 17.937 6.17 18.03C6.07704 18.1237 5.96643 18.1981 5.84458 18.2489C5.72272 18.2997 5.59201 18.3258 5.46 18.3258C5.32799 18.3258 5.19728 18.2997 5.07542 18.2489C4.95357 18.1981 4.84296 18.1237 4.75 18.03L0.879999 14.15C0.318197 13.5875 0.00263977 12.825 0.00263977 12.03C0.00263977 11.235 0.318197 10.4725 0.879999 9.90999Z" fill="white"/>
</g>
<defs>
<clipPath id="clip0_2_411">
<rect width="24" height="24" fill="white" transform="matrix(-1 0 0 1 24 0)"/>
</clipPath>
</defs>
</svg>
