<svg width="212" height="229" viewBox="0 0 212 229" fill="none" xmlns="http://www.w3.org/2000/svg">
<g clip-path="url(#clip0_2_344)">
<path d="M108.552 10.2498C108.154 10.4481 107.757 10.7126 107.359 11.0433C105.768 12.2336 104.642 14.019 103.316 15.6061C100.997 18.5818 98.2799 21.1608 95.2977 23.2108C95.0989 24.7978 93.7735 26.0543 92.3818 26.0543C92.3155 27.2446 92.183 28.3687 92.1167 29.559C88.4055 34.0557 85.4896 39.4782 83.7003 45.2974C82.9713 45.3635 82.1761 45.4958 81.4471 45.628C80.0554 48.6038 78.73 51.5134 77.3383 54.4891C76.5431 54.6875 75.8804 55.3488 75.2177 56.0101C73.8922 57.3988 72.5668 58.7874 71.8379 60.639C70.9101 63.0196 71.1751 65.8631 70.2474 68.2437C69.7172 69.5001 68.9219 70.5582 68.5243 71.8146C68.193 72.8726 68.2592 74.1291 68.8557 74.9887C68.7231 75.3194 68.5243 75.5839 68.3918 75.9145C66.4699 76.9064 64.8132 78.5596 63.7528 80.7418C63.2227 81.0063 62.6262 81.2708 62.0961 81.4692C61.0357 82.9902 59.9754 84.5111 58.9151 86.032C57.921 86.0982 56.9269 86.2304 55.9329 86.2965C54.74 87.6852 53.6134 89.0739 52.4205 90.5287C53.8122 90.8593 55.1376 91.2561 56.5293 91.6529C56.6619 92.4464 56.3968 93.3061 55.8666 93.9012C55.9329 95.8189 55.9992 97.7366 56.0654 99.6543C55.6015 100.58 55.0714 101.572 54.6075 102.498L53.7459 104.217C53.5471 104.68 53.2821 105.143 53.0832 105.54C53.0832 105.606 53.017 105.672 53.017 105.672C51.3602 105.143 49.7034 105.077 48.0467 105.407C48.5768 107.127 49.1733 108.78 49.7034 110.499C48.1792 113.078 46.655 115.723 45.1308 118.302C45.8597 119.426 44.9982 121.08 43.8716 121.476C42.745 121.873 41.5521 121.344 40.4255 120.881C40.9557 123.196 40.4255 125.775 39.1001 127.56C39.8954 127.957 39.9616 129.28 39.564 130.139C39.1664 130.999 38.3711 131.528 37.7747 132.123C35.9191 133.975 34.9251 136.686 33.931 139.265C33.3346 140.918 32.7381 142.571 32.1417 144.224C30.6837 148.258 27.3702 149.382 25.6472 153.284C25.4484 153.747 25.9785 155.4 26.2436 156.656C25.9123 157.318 25.5146 157.913 25.1833 158.574C25.0507 158.64 24.9845 158.64 24.8519 158.706C23.4602 159.235 21.936 162.013 21.8697 162.013C21.8697 162.013 21.5384 163.071 21.4721 163.997L21.207 163.93C21.207 163.005 21.2733 162.079 21.3396 161.153C21.3396 160.822 21.4058 160.492 21.4058 160.161C21.5384 158.177 21.7372 156.127 22.0023 154.144C22.0686 153.747 22.0686 153.35 22.1348 153.019C22.2011 152.623 22.2674 152.226 22.2674 151.895C22.5324 149.911 22.8638 147.928 23.1289 145.944C23.2614 145.282 23.3277 144.687 23.4602 144.092C23.659 142.77 23.9241 141.381 24.1892 140.058C24.3218 139.199 24.5206 138.339 24.7194 137.479C24.8519 136.686 25.0507 135.892 25.2495 135.099C25.2495 135.033 25.2495 134.966 25.3158 134.9C25.846 132.321 26.5087 129.742 27.1051 127.163C27.1714 127.031 27.1714 126.833 27.2377 126.634C27.3702 125.973 27.569 125.378 27.7678 124.717C27.9004 124.254 28.0329 123.791 28.0992 123.328C28.298 122.534 28.5631 121.741 28.7619 120.947C29.1595 119.559 29.5571 118.236 29.9548 116.848C30.3524 115.525 30.75 114.202 31.2139 112.814C31.479 111.954 31.7441 111.161 32.0092 110.301C32.2742 109.441 32.5393 108.648 32.8707 107.788C36.9132 95.885 41.8172 84.2466 47.5828 73.2033C48.4443 71.5501 49.3058 69.8969 50.1673 68.3098C50.2336 68.1776 50.2999 68.0453 50.3661 67.9792C50.6975 67.3179 51.0951 66.6566 51.4265 66.0615L52.0892 64.9373C54.4087 60.9035 56.8607 57.002 59.379 53.1666C60.5056 51.4473 61.6984 49.7941 62.8913 48.1409C63.1564 47.7441 63.4877 47.3474 63.7528 46.9506C64.5481 45.8926 65.3433 44.8345 66.1386 43.7765C68.5243 40.7346 70.9763 37.7589 73.5609 34.9815C76.0792 32.138 78.8625 29.4929 81.6459 26.9139C83.0376 25.6575 84.4956 24.4672 85.9535 23.2108C86.6825 22.6156 87.4115 22.0205 88.1404 21.4915L90.3936 19.8383C91.1889 19.3092 91.9179 18.7141 92.7131 18.2512C93.5084 17.7883 94.3036 17.2593 95.0989 16.7964C96.6894 15.8706 98.2136 14.8787 99.9366 14.0852C100.666 13.6884 101.461 13.3578 102.19 12.961C102.256 12.961 102.322 12.8949 102.389 12.8949C103.184 12.4981 104.045 12.1013 104.907 11.8368C106.034 11.1094 107.293 10.6465 108.552 10.2498Z" fill="#E9961B" fill-opacity="0.1"/>
<path d="M108.552 10.2498C108.154 10.4481 107.757 10.7126 107.359 11.0433C105.768 12.2336 104.642 14.019 103.316 15.6061C100.997 18.5818 98.2799 21.1608 95.2977 23.2108C95.0989 24.7978 93.7735 26.0543 92.3818 26.0543C92.3155 27.2446 92.183 28.3687 92.1167 29.559C88.4055 34.0557 85.4896 39.4782 83.7003 45.2974C82.9713 45.3635 82.1761 45.4958 81.4471 45.628C80.0554 48.6038 78.73 51.5134 77.3383 54.4891C76.5431 54.6875 75.8804 55.3488 75.2177 56.0101C73.8922 57.3988 72.5668 58.7874 71.8379 60.639C70.9101 63.0196 71.1751 65.8631 70.2474 68.2437C69.7172 69.5001 68.9219 70.5582 68.5243 71.8146C68.193 72.8726 68.2592 74.1291 68.8557 74.9887C68.7231 75.3194 68.5243 75.5839 68.3918 75.9145C66.4699 76.9064 64.8132 78.5596 63.7528 80.7418C63.2227 81.0063 62.6262 81.2708 62.0961 81.4692C61.0357 82.9902 59.9754 84.5111 58.9151 86.032C57.921 86.0982 56.9269 86.2304 55.9329 86.2965C54.74 87.6852 53.6134 89.0739 52.4205 90.5287C53.8122 90.8593 55.1376 91.2561 56.5293 91.6529C56.6619 92.4464 56.3968 93.3061 55.8666 93.9012C55.9329 95.8189 55.9992 97.7366 56.0654 99.6543C55.6015 100.58 55.0714 101.572 54.6075 102.498L53.7459 104.217C53.5471 104.68 53.2821 105.143 53.0832 105.54C53.0832 105.606 53.017 105.672 53.017 105.672C51.3602 105.143 49.7034 105.077 48.0467 105.407C48.5768 107.127 49.1733 108.78 49.7034 110.499C48.1792 113.078 46.655 115.723 45.1308 118.302C45.8597 119.426 44.9982 121.08 43.8716 121.476C42.745 121.873 41.5521 121.344 40.4255 120.881C40.9557 123.196 40.4255 125.775 39.1001 127.56C39.8954 127.957 39.9616 129.28 39.564 130.139C39.1664 130.999 38.3711 131.528 37.7747 132.123C35.9191 133.975 34.9251 136.686 33.931 139.265C33.3346 140.918 32.7381 142.571 32.1417 144.224C30.6837 148.258 27.3702 149.382 25.6472 153.284C25.4484 153.747 25.9785 155.4 26.2436 156.656C25.9123 157.318 25.5146 157.913 25.1833 158.574C25.0507 158.64 24.9845 158.64 24.8519 158.706C23.4602 159.235 21.936 162.013 21.8697 162.013C21.8697 162.013 21.5384 163.071 21.4721 163.997L21.207 163.93C21.207 163.005 21.2733 162.079 21.3396 161.153C21.3396 160.822 21.4058 160.492 21.4058 160.161C21.5384 158.177 21.7372 156.127 22.0023 154.144C22.0686 153.747 22.0686 153.35 22.1348 153.019C22.0686 152.027 22.0023 151.035 21.8035 150.044C21.6047 149.184 21.4058 148.324 21.5384 147.398C21.7372 146.076 22.665 145.084 23.4602 144.026C23.7253 142.703 23.9241 141.315 24.1892 139.992C24.3218 139.133 24.5206 138.273 24.7194 137.413C24.8519 136.62 25.0507 135.826 25.2495 135.033C25.2495 134.966 25.2495 134.9 25.3158 134.834C25.0507 133.446 24.4543 132.189 23.7253 131.065C24.6531 129.544 25.846 128.155 27.1714 127.097C27.2377 126.965 27.2377 126.767 27.3039 126.568C27.4365 125.907 27.6353 125.312 27.8341 124.651C27.9666 124.188 28.0992 123.725 28.1655 123.262C28.3643 122.468 28.6294 121.675 28.8282 120.881C28.1655 117.972 29.1595 114.599 31.2139 112.814C31.479 111.954 31.7441 111.161 32.0092 110.301C32.2742 109.441 32.5393 108.648 32.8707 107.788C32.7381 107.259 32.7381 106.664 32.7381 106.135C33.0032 102.895 33.9973 99.7866 35.654 97.1415C36.383 95.9512 37.3108 94.8931 37.841 93.5706C39.1001 90.661 38.7025 86.9578 40.4918 84.445C41.2208 83.4531 42.2148 82.7257 42.6787 81.6015C43.6065 79.5515 42.8776 76.5758 44.468 75.2532C44.9319 74.8565 45.5284 74.7242 45.926 74.1952C46.5887 73.2033 45.8597 71.6823 46.1911 70.492C46.655 68.8388 48.6431 68.7727 50.1673 68.3098C50.2336 68.1776 50.2999 68.0453 50.3661 67.9792C50.6975 67.3179 51.0951 66.6566 51.4265 66.0615L52.0892 64.9373V64.8712C52.2217 62.6228 53.8785 60.9035 55.1376 59.2503C56.3968 57.531 57.3908 54.952 56.2642 53.1005C57.0595 53.5634 57.9873 52.5714 58.3849 51.5795C58.7825 50.5876 59.0476 49.3973 59.8429 48.9344C60.5056 48.5377 61.2345 48.736 61.9635 48.6038C62.3611 48.5377 62.6925 48.3393 62.9576 48.1409C63.2227 47.7441 63.554 47.3474 63.8191 46.9506C64.4155 45.6942 64.4155 44.041 63.4877 43.0491C65.4096 42.52 66.8013 40.1394 66.4699 37.8911C67.7953 39.0153 69.5184 37.3621 70.4462 35.8412C72.5668 32.6009 74.6875 29.4268 76.8082 26.1865C77.2721 25.5252 77.7359 24.7978 78.3987 24.4672C79.6578 23.8059 81.2483 24.5995 82.4412 23.8059C83.0376 23.4092 83.369 22.6818 83.7666 22.0205C86.2849 18.2512 91.2552 18.3173 94.635 15.6061C95.8941 14.6142 96.8882 13.1594 98.2136 12.2997C99.539 11.3739 101.328 11.0433 102.521 12.2336C102.389 12.4981 102.322 12.6965 102.19 12.8949C102.256 12.8949 102.322 12.8287 102.389 12.8287C103.184 12.432 104.045 12.0352 104.907 11.7707C106.034 11.1094 107.293 10.6465 108.552 10.2498Z" fill="#E9961B" fill-opacity="0.1"/>
<path d="M196.692 52.7698C196.295 52.9682 195.897 53.2327 195.499 53.5633C193.909 54.7536 192.782 56.539 191.523 58.1261C189.204 61.1019 186.487 63.6808 183.504 65.7308C183.306 67.3179 181.98 68.5743 180.589 68.5743C180.456 69.7646 180.39 70.8887 180.323 72.079C176.612 76.5757 173.696 81.9982 171.907 87.8174C171.178 87.8835 170.383 88.0158 169.654 88.0819C168.262 91.0577 166.937 93.9673 165.545 96.943C164.75 97.1414 164.087 97.8027 163.424 98.464C162.099 99.8526 160.774 101.241 160.045 103.159C159.117 105.54 159.382 108.383 158.454 110.764C157.924 112.02 157.129 113.078 156.731 114.335C156.4 115.393 156.466 116.649 156.996 117.509C156.864 117.839 156.665 118.104 156.532 118.435C154.61 119.36 152.954 121.08 151.893 123.262C151.363 123.526 150.767 123.725 150.237 123.989C149.176 125.51 148.116 127.031 147.056 128.552C146.061 128.618 145.067 128.75 144.073 128.817C142.88 130.205 141.754 131.594 140.561 133.049C141.953 133.379 143.278 133.776 144.67 134.107C144.802 134.9 144.537 135.76 144.007 136.355C144.073 138.273 144.14 140.191 144.206 142.108C143.742 143.1 143.212 144.026 142.748 145.018C142.019 145.877 141.423 146.936 141.224 148.06C141.224 148.126 141.157 148.192 141.157 148.258C139.501 147.729 137.844 147.663 136.187 147.994C136.717 149.713 137.314 151.366 137.844 153.085C136.32 155.664 134.795 158.309 133.271 160.888C134 162.013 133.139 163.666 132.012 164.063C130.886 164.459 129.626 163.996 128.566 163.467C129.096 165.782 128.566 168.361 127.241 170.146C128.036 170.543 128.102 171.866 127.705 172.725C127.307 173.585 126.512 174.114 125.915 174.709C124.06 176.561 123.066 179.272 122.071 181.851C121.475 183.504 120.879 185.157 120.282 186.81C118.824 190.844 115.511 191.968 113.788 195.87C113.589 196.333 114.119 197.986 114.384 199.242C114.053 199.904 113.655 200.499 113.257 201.16C113.191 201.226 113.059 201.226 112.926 201.292C111.534 201.821 110.01 204.599 109.944 204.599C109.944 204.599 109.613 205.657 109.546 206.583L109.281 206.517C109.281 205.591 109.348 204.665 109.414 203.739C109.414 203.409 109.48 203.012 109.48 202.681C109.48 202.549 109.48 202.417 109.48 202.218C109.48 201.888 109.546 201.557 109.546 201.16C109.679 199.639 109.811 198.184 110.01 196.664C110.077 196.267 110.077 195.87 110.143 195.539C110.209 195.143 110.209 194.746 110.275 194.415C110.54 192.431 110.872 190.448 111.137 188.464C111.269 187.802 111.336 187.207 111.468 186.612C111.733 185.29 111.932 183.901 112.197 182.578C112.396 181.719 112.529 180.859 112.727 179.999C112.86 179.206 113.059 178.412 113.257 177.619C113.257 177.553 113.257 177.486 113.324 177.42C113.854 174.841 114.517 172.262 115.113 169.683C115.179 169.485 115.179 169.353 115.246 169.154C115.378 168.493 115.577 167.832 115.776 167.171C115.908 166.642 116.041 166.113 116.173 165.584C116.24 165.319 116.306 164.988 116.438 164.724C116.902 162.938 117.433 161.219 117.963 159.434C118.559 157.516 119.089 155.664 119.752 153.813C120.083 152.887 120.348 151.961 120.68 151.035C124.789 138.868 129.693 127.097 135.591 115.856C136.452 114.136 137.38 112.417 138.374 110.698C138.838 109.904 139.302 109.044 139.7 108.251C139.766 108.185 139.766 108.119 139.832 108.052C139.898 107.854 140.031 107.722 140.097 107.523C142.417 103.49 144.869 99.5881 147.387 95.7527C148.514 94.0334 149.706 92.3802 150.899 90.727C151.164 90.3303 151.496 89.9335 151.761 89.5367C152.556 88.4787 153.351 87.4207 154.147 86.3626C156.532 83.3207 158.918 80.345 161.569 77.5676C164.087 74.7241 166.871 72.079 169.654 69.5001C171.112 68.2436 172.504 67.0533 173.961 65.7969C174.69 65.2018 175.419 64.6066 176.215 64.0776L178.468 62.4244C179.263 61.8954 179.992 61.3002 180.787 60.8373C181.583 60.3745 182.378 59.8454 183.173 59.3825C184.764 58.4568 186.288 57.4648 188.011 56.6713C188.74 56.2745 189.535 55.9439 190.264 55.5471C190.33 55.5471 190.397 55.481 190.463 55.481C191.258 55.0842 192.12 54.6875 192.981 54.423C194.174 53.5633 195.433 53.1665 196.692 52.7698Z" fill="#E9961B" fill-opacity="0.1"/>
<path d="M196.692 52.7698C196.295 52.9682 195.897 53.2327 195.499 53.5633C193.909 54.7536 192.782 56.539 191.523 58.1261C189.204 61.1019 186.487 63.6808 183.504 65.7308C183.306 67.3179 181.98 68.5743 180.589 68.5743C180.456 69.7646 180.39 70.8887 180.323 72.079C176.612 76.5757 173.696 81.9982 171.907 87.8174C171.178 87.8835 170.383 88.0158 169.654 88.0819C168.262 91.0577 166.937 93.9673 165.545 96.943C164.75 97.1414 164.087 97.8027 163.424 98.464C162.099 99.8526 160.774 101.241 160.045 103.159C159.117 105.54 159.382 108.383 158.454 110.764C157.924 112.02 157.129 113.078 156.731 114.335C156.4 115.393 156.466 116.649 156.996 117.509C156.864 117.839 156.665 118.104 156.532 118.435C154.61 119.36 152.954 121.08 151.893 123.262C151.363 123.526 150.767 123.725 150.237 123.989C149.176 125.51 148.116 127.031 147.056 128.552C146.061 128.618 145.067 128.75 144.073 128.817C142.88 130.205 141.754 131.594 140.561 133.049C141.953 133.379 143.278 133.776 144.67 134.107C144.802 134.9 144.537 135.76 144.007 136.355C144.073 138.273 144.14 140.191 144.206 142.108C143.742 143.1 143.212 144.026 142.748 145.018C142.019 145.877 141.423 146.936 141.224 148.06C141.224 148.126 141.157 148.192 141.157 148.258C139.501 147.729 137.844 147.663 136.187 147.994C136.717 149.713 137.314 151.366 137.844 153.085C136.32 155.664 134.795 158.309 133.271 160.888C134 162.013 133.139 163.666 132.012 164.063C130.886 164.459 129.626 163.996 128.566 163.467C129.096 165.782 128.566 168.361 127.241 170.146C128.036 170.543 128.102 171.866 127.705 172.725C127.307 173.585 126.512 174.114 125.915 174.709C124.06 176.561 123.066 179.272 122.071 181.851C121.475 183.504 120.879 185.157 120.282 186.81C118.824 190.844 115.511 191.968 113.788 195.87C113.589 196.333 114.119 197.986 114.384 199.242C114.053 199.904 113.655 200.499 113.257 201.16C113.191 201.226 113.059 201.226 112.926 201.292C111.534 201.821 110.01 204.599 109.944 204.599C109.944 204.599 109.613 205.657 109.546 206.583L109.281 206.517C109.281 205.591 109.348 204.665 109.414 203.739C109.414 203.409 109.48 203.012 109.48 202.681C109.48 202.549 109.48 202.417 109.48 202.218C109.48 201.888 109.546 201.557 109.546 201.16C109.679 199.639 109.811 198.184 110.01 196.664C110.077 196.267 110.077 195.87 110.143 195.539C110.077 194.547 110.01 193.556 109.811 192.564C109.613 191.704 109.414 190.778 109.546 189.918C109.745 188.53 110.739 187.604 111.468 186.546C111.733 185.223 111.932 183.835 112.197 182.512C112.396 181.653 112.529 180.793 112.727 179.933C112.86 179.14 113.059 178.346 113.257 177.553C113.257 177.486 113.257 177.42 113.324 177.354C112.992 175.966 112.462 174.643 111.733 173.585C112.661 172.064 113.854 170.675 115.179 169.617C115.246 169.419 115.246 169.287 115.312 169.088C115.444 168.427 115.643 167.766 115.842 167.104C115.975 166.575 116.107 166.046 116.24 165.517C116.306 165.253 116.372 164.922 116.505 164.658C116.637 164.261 116.704 163.864 116.836 163.467C116.173 160.558 117.167 157.185 119.222 155.4C119.421 154.871 119.553 154.276 119.752 153.747C120.083 152.821 120.348 151.895 120.68 150.969C120.746 150.771 120.812 150.573 120.879 150.374C120.746 149.845 120.746 149.25 120.746 148.721C121.011 145.481 122.005 142.373 123.662 139.728C124.391 138.537 125.319 137.479 125.849 136.157C127.108 133.247 126.71 129.544 128.433 127.031C129.162 126.039 130.157 125.312 130.62 124.188C131.548 122.204 130.819 119.162 132.41 117.839C132.874 117.443 133.47 117.31 133.868 116.781C134.53 115.789 133.801 114.268 134.133 113.078C134.597 111.425 136.585 111.359 138.109 110.896C138.175 110.83 138.175 110.764 138.242 110.631C138.705 109.838 139.169 108.978 139.567 108.185C139.633 108.119 139.633 108.052 139.7 107.986C139.766 107.788 139.898 107.656 139.965 107.457V107.391C140.097 105.143 141.754 103.49 143.013 101.77C144.272 100.051 145.333 97.4721 144.14 95.6866C144.935 96.1495 145.863 95.1576 146.26 94.1657C146.658 93.1738 146.923 91.9835 147.718 91.5206C148.381 91.1238 149.11 91.3222 149.839 91.1899C150.237 91.1238 150.568 90.9254 150.899 90.727C151.164 90.3303 151.496 89.9335 151.761 89.5367C152.357 88.2803 152.357 86.6271 151.429 85.6352C153.351 85.1062 154.743 82.7256 154.412 80.4773C155.737 81.6014 157.46 79.9482 158.454 78.4273C160.575 75.187 162.695 72.0129 164.816 68.7727C165.28 68.1114 165.744 67.384 166.407 67.0533C167.666 66.3921 169.256 67.1856 170.449 66.3921C171.046 65.9953 171.377 65.2679 171.775 64.6066C174.293 60.8373 179.263 60.9035 182.643 58.1261C183.902 57.1342 184.896 55.7455 186.222 54.8197C187.547 53.8939 189.336 53.5633 190.529 54.7536C190.397 54.952 190.33 55.2165 190.198 55.4149C190.264 55.4149 190.33 55.3487 190.397 55.3487C191.192 54.952 192.053 54.5552 192.915 54.2907C194.174 53.5633 195.433 53.1665 196.692 52.7698Z" fill="#E9961B" fill-opacity="0.1"/>
<path d="M56.1976 23.0125C55.9325 23.1447 55.6674 23.3431 55.4023 23.5415C54.4083 24.335 53.613 25.4592 52.8178 26.4511C51.2935 28.3688 49.5705 30.022 47.6486 31.3445C47.5161 32.3364 46.6546 33.1961 45.7931 33.1961C45.7268 33.9235 45.6605 34.6509 45.5942 35.4444C43.2085 38.3541 41.3529 41.7927 40.16 45.562C39.6962 45.6281 39.166 45.6942 38.7021 45.7604C37.8406 47.6781 36.9128 49.5296 36.0513 51.4473C35.5211 51.5796 35.1235 51.9764 34.7259 52.4393C33.8643 53.2989 33.0028 54.2247 32.5389 55.415C31.9425 56.9359 32.1413 58.7875 31.5449 60.3084C31.2135 61.102 30.6833 61.7632 30.4183 62.6229C30.2194 63.2842 30.2194 64.1438 30.6171 64.6729C30.4845 64.8712 30.4183 65.0696 30.2857 65.268C29.0266 65.8632 27.9662 66.9873 27.3035 68.376C26.9722 68.5083 26.5746 68.7067 26.2432 68.8389C25.5805 69.8308 24.8515 70.8227 24.1888 71.7485C23.5261 71.8146 22.9297 71.8808 22.267 71.9469C21.538 72.8727 20.7427 73.7324 20.0138 74.6581C20.8753 74.9227 21.8031 75.121 22.6646 75.3855C22.7309 75.9146 22.5983 76.4436 22.267 76.8403L22.3995 80.5435C22.0681 81.1386 21.7368 81.7338 21.4717 82.3951C21.0078 82.9241 20.6102 83.5854 20.4776 84.3789C20.4776 84.3789 20.4776 84.445 20.4114 84.5112C19.351 84.1805 18.2907 84.1144 17.2304 84.3128C17.5617 85.4369 17.9594 86.495 18.2907 87.553C17.2967 89.2062 16.3026 90.9255 15.3748 92.5787C15.8387 93.3061 15.3085 94.3642 14.5796 94.6287C13.8506 94.8932 13.0553 94.5626 12.3264 94.2319C12.6577 95.6867 12.3264 97.3399 11.4648 98.5302C11.995 98.7947 11.995 99.6544 11.7299 100.183C11.4648 100.712 11.0009 101.043 10.537 101.506C9.34417 102.696 8.68146 104.416 8.08503 106.069C7.6874 107.127 7.28978 108.185 6.95842 109.243C6.03063 111.822 3.90997 112.549 2.78337 115.062C2.65083 115.327 2.98218 116.385 3.18099 117.178C2.91591 117.575 2.7171 117.972 2.45202 118.435C2.38575 118.435 2.31947 118.501 2.2532 118.501C1.39168 118.831 0.397624 120.617 0.331354 120.617C0.331354 120.617 0.132541 121.278 0.0662707 121.939L0 121.807C0 121.146 0.0662707 120.485 0.0662707 119.823C0.0662707 119.493 0.132541 119.162 0.132541 118.831C0.132541 118.501 0.198812 118.104 0.198812 117.773C0.198812 117.443 0.265083 117.178 0.265083 116.848C0.265083 116.649 0.331354 116.451 0.331354 116.252C0.331354 115.988 0.397624 115.79 0.397624 115.525C0.397624 115.261 0.463895 114.93 0.530166 114.665C0.530166 114.401 0.596436 114.136 0.596436 113.938C0.728978 112.615 0.92779 111.359 1.19287 110.103C1.25914 109.706 1.32541 109.309 1.39168 108.912C1.52423 108.053 1.72304 107.193 1.85558 106.333C2.05439 105.209 2.31947 104.085 2.51829 103.027C2.84964 101.374 3.24726 99.7205 3.71116 98.0673C3.8437 97.406 4.04251 96.7448 4.24133 96.0835C4.44014 95.4222 4.57268 94.7609 4.77149 94.0997C5.03657 93.24 5.30166 92.3803 5.50047 91.4546C5.76555 90.5949 6.03063 89.7352 6.29572 88.8756C6.62707 87.8175 6.95842 86.6934 7.35605 85.6353C9.94061 77.9645 13.1216 70.5582 16.7665 63.4164C17.2967 62.3584 17.8931 61.3004 18.4233 60.2423C18.4895 60.1762 18.5558 60.0439 18.5558 59.9778C18.8209 59.5149 19.0197 59.1181 19.2848 58.6552C19.4173 58.4569 19.4836 58.2585 19.6161 58.0601C21.0741 55.4811 22.6646 52.9683 24.3214 50.5216C25.0503 49.3974 25.7793 48.3393 26.5746 47.2813C26.7734 47.0168 26.9722 46.7523 27.1047 46.4878C27.6349 45.8265 28.0988 45.0991 28.6289 44.4378C30.1532 42.5201 31.7437 40.6024 33.4004 38.7508C35.0572 36.8993 36.7802 35.2461 38.5696 33.5267C39.4973 32.7332 40.4251 31.9397 41.3529 31.1462C41.8168 30.7494 42.2807 30.4187 42.8109 30.022L44.2688 28.9639C44.799 28.6333 45.2629 28.2365 45.7268 27.9059C46.257 27.5753 46.7209 27.2446 47.251 26.9801C48.2451 26.385 49.2391 25.7237 50.3657 25.2608C50.8296 24.9963 51.3598 24.7979 51.8237 24.5334C51.89 24.5334 51.89 24.4673 51.9562 24.4673C52.4864 24.2027 53.0166 23.9382 53.5467 23.806C54.5408 23.6076 55.4023 23.277 56.1976 23.0125Z" fill="#E9961B" fill-opacity="0.1"/>
<path d="M56.1976 23.0125C55.9325 23.1447 55.6674 23.3431 55.4023 23.5415C54.4083 24.335 53.613 25.4592 52.8178 26.4511C51.2935 28.3688 49.5705 30.022 47.6486 31.3445C47.5161 32.3364 46.6546 33.1961 45.7931 33.1961C45.7268 33.9235 45.6605 34.6509 45.5942 35.4444C43.2085 38.3541 41.3529 41.7927 40.16 45.562C39.6962 45.6281 39.166 45.6942 38.7021 45.7604C37.8406 47.6781 36.9128 49.5296 36.0513 51.4473C35.5211 51.5796 35.1235 51.9764 34.7259 52.4393C33.8643 53.2989 33.0028 54.2247 32.5389 55.415C31.9425 56.9359 32.1413 58.7875 31.5449 60.3084C31.2135 61.102 30.6833 61.7632 30.4183 62.6229C30.2194 63.2842 30.2194 64.1438 30.6171 64.6729C30.4845 64.8712 30.4183 65.0696 30.2857 65.268C29.0266 65.8632 27.9662 66.9873 27.3035 68.376C26.9722 68.5083 26.5746 68.7067 26.2432 68.8389C25.5805 69.8308 24.8515 70.8227 24.1888 71.7485C23.5261 71.8146 22.9297 71.8808 22.267 71.9469C21.538 72.8727 20.7427 73.7324 20.0138 74.6581C20.8753 74.9227 21.8031 75.121 22.6646 75.3855C22.7309 75.9146 22.5983 76.4436 22.267 76.8403L22.3995 80.5435C22.0681 81.1386 21.7368 81.7338 21.4717 82.3951C21.0078 82.9241 20.6102 83.5854 20.4776 84.3789C20.4776 84.3789 20.4776 84.445 20.4114 84.5112C19.351 84.1805 18.2907 84.1144 17.2304 84.3128C17.5617 85.4369 17.9594 86.495 18.2907 87.553C17.2967 89.2062 16.3026 90.9255 15.3748 92.5787C15.8387 93.3061 15.3085 94.3642 14.5796 94.6287C13.8506 94.8932 13.0553 94.5626 12.3264 94.2319C12.6577 95.6867 12.3264 97.3399 11.4648 98.5302C11.995 98.7947 11.995 99.6544 11.7299 100.183C11.4648 100.712 11.0009 101.043 10.537 101.506C9.34417 102.696 8.68146 104.416 8.08503 106.069C7.6874 107.127 7.28978 108.185 6.95842 109.243C6.03063 111.822 3.90997 112.549 2.78337 115.062C2.65083 115.327 2.98218 116.385 3.18099 117.178C2.91591 117.575 2.7171 117.972 2.45202 118.435C2.38575 118.435 2.31947 118.501 2.2532 118.501C1.39168 118.831 0.397624 120.617 0.331354 120.617C0.331354 120.617 0.132541 121.278 0.0662707 121.939L0 121.807C0 121.146 0.0662707 120.485 0.0662707 119.823C0.0662707 119.493 0.132541 119.162 0.132541 118.831C0.132541 118.501 0.198812 118.104 0.198812 117.773C0.198812 117.443 0.265083 117.178 0.265083 116.848C0.265083 116.649 0.331354 116.451 0.331354 116.252C0.331354 115.988 0.397624 115.79 0.397624 115.525C0.397624 115.261 0.463895 114.93 0.530166 114.665C0.463895 114.004 0.397624 113.343 0.331354 112.748C0.198812 112.219 0.0662707 111.623 0.198812 111.094C0.331354 110.235 0.92779 109.574 1.45796 108.912C1.5905 108.053 1.78931 107.193 1.92185 106.333C2.12066 105.209 2.38575 104.085 2.58456 103.027C2.38575 102.167 2.05439 101.308 1.52423 100.58C2.12066 99.5883 2.84964 98.7286 3.71116 98.0673C3.8437 97.406 4.04251 96.7448 4.24133 96.0835C4.44014 95.4222 4.57268 94.7609 4.77149 94.0997C4.37387 92.2481 4.9703 90.0659 6.29572 88.8756C6.62707 87.8175 6.95842 86.6934 7.35605 85.6353C7.22351 85.3047 7.28978 84.9079 7.28978 84.5773C7.42232 82.5273 8.08503 80.4774 9.14536 78.8242C9.60925 78.0306 10.2057 77.3694 10.537 76.5097C11.3323 74.6581 11.0672 72.2775 12.1938 70.6244C12.6577 69.9631 13.3204 69.5002 13.6518 68.7728C14.2482 67.4502 13.7843 65.5325 14.8446 64.6729C15.176 64.4084 15.5073 64.3422 15.7724 64.0116C16.2363 63.3503 15.7062 62.3584 15.905 61.631C16.2363 60.5729 17.4955 60.573 18.4233 60.2423C18.4895 60.1762 18.5558 60.0439 18.5558 59.9778C18.8209 59.5149 19.0197 59.1181 19.2848 58.6552C19.4173 58.4569 19.4836 58.2585 19.6161 58.0601C19.6161 58.0601 19.6161 58.0601 19.6161 57.994C19.6824 56.5392 20.7427 55.4811 21.538 54.357C22.3332 53.2328 22.9959 51.5796 22.267 50.3893C22.7971 50.7199 23.3936 50.0587 23.5924 49.3974C23.7912 48.7361 23.99 48.0087 24.5202 47.6781C24.9178 47.4135 25.3817 47.5458 25.8456 47.4797C26.1107 47.4136 26.3095 47.3474 26.5083 47.149C26.7071 46.8845 26.9059 46.62 27.0384 46.3555C27.4361 45.562 27.4361 44.5039 26.8396 43.8427C28.0988 43.512 28.9603 41.9911 28.7615 40.5363C29.623 41.2637 30.6833 40.2056 31.346 39.2137C32.7377 37.1638 34.0631 35.0477 35.4548 32.9977C35.7199 32.5348 36.0513 32.1381 36.4489 31.8736C37.2441 31.4768 38.3045 31.9397 39.0334 31.4768C39.4311 31.2123 39.6299 30.7494 39.895 30.3526C41.5517 27.9059 44.7327 27.972 46.8534 26.1866C47.6486 25.5253 48.3113 24.6656 49.1729 24.0705C50.0344 23.4753 51.161 23.277 51.89 24.0044C51.8237 24.1366 51.7574 24.335 51.6912 24.4673C51.7574 24.4673 51.7574 24.4011 51.8237 24.4011C52.3539 24.1366 52.884 23.8721 53.4142 23.7399C54.5408 23.6076 55.4023 23.277 56.1976 23.0125Z" fill="#E9961B" fill-opacity="0.1"/>
<path d="M211.998 98.53C211.733 98.6623 211.468 98.8607 211.203 99.0591C210.209 99.8526 209.414 100.977 208.618 102.035C207.094 103.952 205.371 105.606 203.449 106.928C203.317 107.92 202.455 108.78 201.594 108.78C201.527 109.507 201.461 110.301 201.395 111.028C199.009 113.938 197.154 117.376 195.961 121.146C195.497 121.212 194.967 121.278 194.503 121.344C193.641 123.262 192.713 125.113 191.852 127.031C191.322 127.163 190.924 127.626 190.526 128.023C189.665 128.883 188.803 129.808 188.34 130.999C187.743 132.52 187.942 134.371 187.346 135.892C187.014 136.686 186.484 137.347 186.219 138.207C186.02 138.868 186.02 139.728 186.418 140.257C186.285 140.455 186.219 140.653 186.086 140.852C184.827 141.447 183.767 142.571 183.104 143.96C182.773 144.092 182.375 144.29 182.044 144.423C181.381 145.415 180.652 146.406 179.989 147.332C179.327 147.398 178.73 147.464 178.068 147.531C177.339 148.456 176.543 149.316 175.814 150.242C176.676 150.44 177.537 150.705 178.465 150.969C178.531 151.498 178.399 152.027 178.068 152.424C178.068 153.68 178.134 154.937 178.2 156.127C177.869 156.722 177.604 157.384 177.272 157.979C176.808 158.508 176.411 159.169 176.278 159.963C176.278 159.963 176.278 160.029 176.212 160.095C175.152 159.764 174.091 159.698 173.031 159.896C173.362 160.955 173.76 162.079 174.091 163.137C173.097 164.79 172.103 166.509 171.175 168.162C171.639 168.89 171.109 169.948 170.38 170.212C169.651 170.477 168.856 170.146 168.127 169.816C168.458 171.27 168.127 172.924 167.265 174.114C167.729 174.378 167.796 175.172 167.531 175.767C167.265 176.296 166.802 176.627 166.338 177.09C165.145 178.28 164.482 179.999 163.886 181.652C163.488 182.711 163.09 183.769 162.759 184.827C161.831 187.406 159.711 188.133 158.584 190.646C158.451 190.91 158.783 191.968 158.982 192.762C158.783 193.159 158.518 193.555 158.253 194.018C158.186 194.018 158.12 194.084 158.054 194.084C157.192 194.415 156.198 196.201 156.132 196.201C156.132 196.201 155.867 196.862 155.867 197.523L155.734 197.457C155.734 197.192 155.734 196.862 155.734 196.597C155.734 196.399 155.734 196.134 155.734 195.936C155.734 195.539 155.801 195.209 155.801 194.812C155.867 194.217 155.867 193.688 155.933 193.093C155.999 192.233 156.132 191.373 156.198 190.447C156.198 190.183 156.265 189.918 156.265 189.72C156.397 188.464 156.596 187.141 156.861 185.885C156.927 185.488 156.994 185.091 157.06 184.694C157.06 184.628 157.06 184.562 157.126 184.496C157.259 183.702 157.391 182.909 157.59 182.115C157.722 181.586 157.789 180.991 157.921 180.462C158.054 179.933 158.12 179.338 158.253 178.809C158.584 177.156 158.982 175.503 159.446 173.849C159.446 173.783 159.446 173.717 159.512 173.651C159.644 173.122 159.777 172.593 159.909 172.13C160.108 171.403 160.307 170.675 160.506 169.948C160.771 169.088 161.036 168.162 161.235 167.303C161.5 166.443 161.765 165.583 162.03 164.724C162.361 163.666 162.693 162.542 163.09 161.484C165.675 153.813 168.856 146.34 172.501 139.265C173.031 138.207 173.627 137.149 174.158 136.091C174.158 136.024 174.224 135.958 174.224 135.958C174.555 135.297 174.953 134.636 175.351 133.974C175.351 133.974 175.351 133.908 175.417 133.908C176.875 131.329 178.465 128.816 180.122 126.37C180.851 125.312 181.58 124.188 182.375 123.196C182.574 122.931 182.773 122.667 182.905 122.402C183.436 121.741 183.899 121.013 184.43 120.352C185.954 118.434 187.544 116.517 189.201 114.731C190.858 112.88 192.581 111.16 194.37 109.507C195.298 108.714 196.226 107.92 197.154 107.127C197.617 106.73 198.081 106.399 198.545 106.002L200.003 104.944C200.467 104.614 200.997 104.217 201.461 103.886C201.991 103.556 202.455 103.225 202.985 102.961C203.979 102.365 204.974 101.704 206.1 101.241C206.564 100.977 207.094 100.778 207.558 100.514C207.624 100.514 207.624 100.448 207.691 100.448C208.221 100.183 208.751 99.9187 209.281 99.7865C210.408 99.059 211.203 98.7945 211.998 98.53Z" fill="#E9961B" fill-opacity="0.1"/>
<path d="M211.998 98.53C211.733 98.6623 211.468 98.8607 211.203 99.0591C210.209 99.8526 209.414 100.977 208.618 102.035C207.094 103.952 205.371 105.606 203.449 106.928C203.317 107.92 202.455 108.78 201.594 108.78C201.527 109.507 201.461 110.301 201.395 111.028C199.009 113.938 197.154 117.376 195.961 121.146C195.497 121.212 194.967 121.278 194.503 121.344C193.641 123.262 192.713 125.113 191.852 127.031C191.322 127.163 190.924 127.626 190.526 128.023C189.665 128.883 188.803 129.808 188.34 130.999C187.743 132.52 187.942 134.371 187.346 135.892C187.014 136.686 186.484 137.347 186.219 138.207C186.02 138.868 186.02 139.728 186.418 140.257C186.285 140.455 186.219 140.653 186.086 140.852C184.827 141.447 183.767 142.571 183.104 143.96C182.773 144.092 182.375 144.29 182.044 144.423C181.381 145.415 180.652 146.406 179.989 147.332C179.327 147.398 178.73 147.464 178.068 147.531C177.339 148.456 176.543 149.316 175.814 150.242C176.676 150.44 177.537 150.705 178.465 150.969C178.531 151.498 178.399 152.027 178.068 152.424C178.068 153.68 178.134 154.937 178.2 156.127C177.869 156.722 177.604 157.384 177.272 157.979C176.808 158.508 176.411 159.169 176.278 159.963C176.278 159.963 176.278 160.029 176.212 160.095C175.152 159.764 174.091 159.698 173.031 159.896C173.362 160.955 173.76 162.079 174.091 163.137C173.097 164.79 172.103 166.509 171.175 168.162C171.639 168.89 171.109 169.948 170.38 170.212C169.651 170.477 168.856 170.146 168.127 169.816C168.458 171.27 168.127 172.924 167.265 174.114C167.729 174.378 167.796 175.172 167.531 175.767C167.265 176.296 166.802 176.627 166.338 177.09C165.145 178.28 164.482 179.999 163.886 181.652C163.488 182.711 163.09 183.769 162.759 184.827C161.831 187.406 159.711 188.133 158.584 190.646C158.451 190.91 158.783 191.968 158.982 192.762C158.783 193.159 158.518 193.555 158.253 194.018C158.186 194.018 158.12 194.084 158.054 194.084C157.192 194.415 156.198 196.201 156.132 196.201C156.132 196.201 155.867 196.862 155.867 197.523L155.734 197.457C155.734 197.192 155.734 196.862 155.734 196.597C155.734 196.399 155.734 196.134 155.734 195.936C155.734 195.539 155.801 195.209 155.801 194.812C155.867 194.217 155.867 193.688 155.933 193.093C155.999 192.233 156.132 191.373 156.198 190.447C156.132 189.786 156.132 189.125 155.999 188.53C155.867 188.001 155.734 187.406 155.801 186.877C155.933 186.017 156.53 185.356 157.06 184.694C157.06 184.628 157.06 184.562 157.126 184.496C157.259 183.702 157.391 182.909 157.59 182.115C157.722 181.586 157.789 180.991 157.921 180.462C158.054 179.933 158.12 179.338 158.253 178.809C158.054 177.949 157.722 177.09 157.192 176.362C157.789 175.37 158.518 174.511 159.379 173.849C159.379 173.783 159.379 173.717 159.446 173.651C159.578 173.122 159.711 172.593 159.843 172.13C160.042 171.403 160.241 170.675 160.44 169.948C160.042 168.096 160.638 165.914 161.964 164.724C162.295 163.666 162.627 162.542 163.024 161.484C162.892 161.153 162.892 160.756 162.958 160.425C163.09 158.376 163.753 156.326 164.813 154.672C165.277 153.879 165.874 153.218 166.205 152.358C167 150.506 166.735 148.126 167.862 146.473C168.326 145.811 168.989 145.348 169.32 144.621C169.916 143.298 169.452 141.381 170.513 140.521C170.844 140.257 171.175 140.19 171.441 139.86C171.904 139.199 171.374 138.273 171.573 137.479C171.838 136.421 173.164 136.355 174.091 136.024C174.091 135.958 174.158 135.892 174.158 135.892C174.489 135.231 174.887 134.57 175.284 133.908C175.284 133.908 175.284 133.842 175.351 133.842V133.776C175.417 132.321 176.477 131.263 177.272 130.139C178.068 129.015 178.73 127.362 178.001 126.238C178.532 126.568 179.128 125.907 179.327 125.246C179.592 124.584 179.724 123.857 180.255 123.526C180.652 123.262 181.116 123.394 181.58 123.328C181.845 123.262 182.044 123.196 182.243 122.997C182.441 122.733 182.64 122.468 182.773 122.204C183.104 121.41 183.104 120.352 182.574 119.691C183.833 119.36 184.695 117.839 184.496 116.384C185.357 117.112 186.418 116.054 187.08 115.062C188.472 113.012 189.798 110.896 191.189 108.846C191.454 108.383 191.786 107.986 192.183 107.722C192.979 107.325 194.039 107.788 194.768 107.259C195.165 106.994 195.364 106.531 195.629 106.135C197.22 103.754 200.467 103.754 202.588 101.969C203.383 101.307 204.046 100.448 204.907 99.8526C205.769 99.2574 206.895 99.059 207.691 99.7865C207.624 99.9187 207.558 100.051 207.492 100.249C207.558 100.249 207.558 100.183 207.624 100.183C208.154 99.9187 208.685 99.6542 209.215 99.5219C210.408 99.0591 211.203 98.7945 211.998 98.53Z" fill="#E9961B" fill-opacity="0.1"/>
<path d="M178.933 0.396731C175.089 1.91767 171.776 5.22405 168.86 8.66269C158.986 20.3011 151.63 34.5847 141.225 45.628C140.297 51.9763 136.586 57.7955 131.616 60.5729C129.098 61.697 126.314 61.8954 123.663 61.1019C124.79 62.6228 125.85 64.2099 126.977 65.7308C124.923 66.326 124.856 69.6324 124.856 72.0791C124.79 81.2047 118.826 88.611 113.988 95.8189C108.819 103.49 104.577 111.888 100.336 120.286C99.2757 122.402 98.2154 124.452 97.1551 126.568C94.3717 132.123 90.5943 138.339 85.0275 138.603C83.6359 138.67 82.1779 138.339 80.9187 138.934C79.6596 139.529 78.7981 141.645 79.7921 142.77C83.0394 141.579 85.889 145.811 86.7506 149.647C87.6121 153.085 86.8168 158.243 83.7021 158.243C83.5696 159.698 83.437 161.153 83.3045 162.542C79.262 166.509 75.2195 170.543 71.177 174.511C71.9722 177.288 71.8397 180.396 70.8456 183.107C69.0563 185.091 65.8753 185.025 64.1523 182.909C64.086 185.223 64.086 187.472 64.0197 189.786C63.0257 189.919 62.1641 190.448 61.4352 191.175C62.1641 192.233 62.9594 193.291 63.6884 194.349C61.634 198.846 59.5133 203.409 57.4589 207.905C55.8684 211.344 54.2779 214.783 52.3561 217.957C51.362 219.544 49.8378 220.8 48.181 219.94C48.181 222.387 48.181 225.032 48.8437 227.215C48.5124 227.81 48.1147 228.339 47.7834 228.934L46.9219 228.603C47.0544 223.115 47.5846 217.692 48.2473 212.336C48.181 210.815 48.0485 209.294 47.7171 207.839C47.452 206.583 47.1207 205.26 47.3195 203.938C47.5846 202.02 48.91 200.631 50.0366 199.11C49.1751 198.581 48.181 198.251 47.2532 198.184C49.3076 194.217 50.6993 189.786 51.2957 185.157C51.4283 184.099 51.4946 183.041 51.8922 182.049C51.4946 181.19 51.0307 180.33 50.5005 179.536C51.8259 177.354 53.4164 175.437 55.272 173.916C55.4045 171.535 54.8081 169.154 53.4827 167.303C54.4767 167.038 55.4708 166.708 56.4649 166.443C56.5974 165.187 57.1276 164.063 57.724 163.005C57.3926 159.566 58.5192 155.863 60.6399 153.416C60.7725 150.837 60.3748 148.192 59.5133 145.811C62.2304 145.745 63.6221 141.778 63.357 138.67C63.0919 135.495 61.8991 132.387 62.4955 129.279C64.4836 129.742 66.7368 128.288 67.4658 126.105C67.7972 125.047 67.8634 123.791 68.1285 122.667C68.8575 119.757 70.9781 117.839 73.2313 115.988C73.629 113.938 74.1591 112.02 75.2857 110.367C76.3461 108.912 77.804 107.788 78.5993 106.135C79.991 103.159 78.8644 98.6624 81.3164 96.7447C81.5815 96.5463 81.8465 96.3479 82.1779 96.2157C82.2442 96.1495 82.3104 96.0173 82.3104 95.9512C82.7081 95.0915 82.7743 94.0335 82.9731 93.0415C83.1057 92.3141 83.3708 91.5867 83.7021 90.9916C83.7021 90.5287 83.7021 90.0658 83.8347 89.669C84.4974 87.2223 87.4133 87.1562 89.6665 86.4288C88.4073 84.5111 87.2807 82.3289 87.4133 80.0144C87.6121 77.4354 90.4617 75.2532 92.1185 76.9725C95.2995 74.7242 97.1551 70.2936 96.7575 65.9953C97.6852 66.1276 98.613 65.797 99.342 65.2679C99.2095 64.7389 99.0107 64.276 98.7456 63.8131C99.8722 64.4744 101.065 63.2841 101.728 61.9616C102.125 60.639 102.192 59.1842 101.661 57.9278C102.39 58.06 103.119 58.06 103.848 57.8616C103.915 57.7955 103.981 57.7294 104.114 57.6633C104.379 57.4649 104.71 57.3987 105.041 57.3326C106.102 56.7375 106.963 55.8117 107.493 54.5553C108.289 54.6875 109.084 54.7536 109.945 54.8859C110.012 54.8198 110.012 54.7536 110.078 54.6875C110.144 54.6214 110.144 54.5553 110.21 54.423C110.012 53.4311 109.813 52.4392 109.614 51.4473C109.018 48.6699 108.487 45.5619 109.614 43.0491C110.807 40.4039 113.325 39.0814 115.512 37.4943C121.278 33.1299 124.657 25.7236 129.561 20.1689C131.815 17.5899 134.399 15.3416 137.249 13.6223C139.171 12.432 141.291 11.5062 143.412 11.7046C144.472 11.8368 145.4 12.2336 146.262 12.8949C149.575 11.44 153.22 10.4481 156.07 8.13366C157.925 6.61273 159.45 4.56277 161.371 3.17409C163.293 1.78541 166.01 1.32252 167.733 3.10796C167.601 3.4386 167.402 3.76924 167.203 4.16601C167.269 4.09988 167.402 4.09988 167.468 4.03375C168.727 3.50473 169.92 2.84345 171.179 2.44669C173.698 1.5209 176.216 0.661242 178.801 -0.0661621L178.933 0.396731Z" fill="#E9961B" fill-opacity="0.1"/>
</g>
<defs>
<clipPath id="clip0_2_344">
<rect width="212" height="229" fill="white"/>
</clipPath>
</defs>
</svg>
